<svg width="30" height="30" viewBox="0 0 30 30" fill="none" xmlns="http://www.w3.org/2000/svg">
<path d="M12.1702 17L9.21671 16L4.19834 14.4115C3.78264 14.2799 3.50012 13.8941 3.50012 13.4581V9C3.50012 8.44772 3.94784 8 4.50012 8H25.5001C26.0524 8 26.5001 8.44772 26.5001 9V13.4708C26.5001 13.9007 26.2253 14.2825 25.8177 14.419L20.812 16.0952L17.3672 17.3647M25.5001 14.8833V24C25.5001 24.5523 25.0524 25 24.5001 25H5.50012C4.94784 25 4.50012 24.5523 4.50012 24V14.5M19.5001 8V5.5C19.5001 5.22386 19.2763 5 19.0001 5H11.0001C10.724 5 10.5001 5.22386 10.5001 5.5V8M13.0001 20H17.0001C17.2763 20 17.5001 19.7761 17.5001 19.5V16.5C17.5001 16.2239 17.2763 16 17.0001 16H13.0001C12.724 16 12.5001 16.2239 12.5001 16.5V19.5C12.5001 19.7761 12.724 20 13.0001 20Z" stroke="currentColor"/>
</svg>
