<svg width="30" height="30" viewBox="0 0 30 30" fill="none" xmlns="http://www.w3.org/2000/svg">
<path d="M6.99 15.68C4.93 17.98 5 21.51 7.21 23.73C9.42 25.94 12.96 26.01 15.25 23.95" stroke="currentColor" stroke-miterlimit="10" stroke-linecap="round" stroke-linejoin="round"/>
<path d="M23.66 7.28C24.9 8.52 24.9 10.53 23.66 11.76" stroke="currentColor" stroke-miterlimit="10" stroke-linecap="round" stroke-linejoin="round"/>
<path d="M16.25 18.85L16.26 18.81C16.39 18.33 16.68 17.85 17.13 17.44L18.05 16.58L18.09 16.55L18.1 16.54L18.5 16.17C18.57 16.11 18.63 16.05 18.7 16C18.71 15.99 18.71 15.99 18.72 15.98C19.52 15.3 20.22 14.79 20.99 14.37L21.19 14.33C21.62 14.36 22.07 14.32 22.51 14.23C23.43 14.04 24.28 13.59 24.97 12.91C26.88 11 26.88 7.9 24.97 6C23.06 4.09 19.96 4.09 18.06 6C17.38 6.68 16.92 7.53 16.74 8.46C16.65 8.9 16.62 9.34 16.65 9.8C16.66 9.87 16.64 9.94 16.6 10.01C16.6 10.01 15.65 11.56 15.03 12.29L15 12.28C14.62 12.72 14.23 13.13 13.77 13.57C13.68 13.66 13.59 13.75 13.49 13.84L13.32 13.99C13.27 14.03 13.22 14.08 13.16 14.12C12.87 14.35 12.57 14.52 12.27 14.63C12.27 14.63 12.15 14.67 12.09 14.69C13.14 17.5 16.25 18.85 16.25 18.85Z" stroke="currentColor" stroke-miterlimit="10" stroke-linecap="round" stroke-linejoin="round"/>
<path d="M18.82 15.89C21.28 19.12 22.13 22.45 20.66 23.92C18.88 25.7 14.39 24.09 10.62 20.32C6.85001 16.55 5.24001 12.07 7.02001 10.29C8.50001 8.81 11.84 9.67 15.09 12.16" stroke="currentColor" stroke-miterlimit="10" stroke-linecap="round" stroke-linejoin="round"/>
</svg>
