<svg width="64" height="64" viewBox="0 0 64 64" fill="none" xmlns="http://www.w3.org/2000/svg">
<path d="M42.1792 21.8972C41.5849 21.3063 40.625 21.3063 40.0307 21.8972L31.8021 30.1257L23.5735 21.8972C23.2874 21.6087 22.8979 21.4464 22.4916 21.4464C22.0853 21.4464 21.6958 21.6087 21.4097 21.8972C20.8189 22.4915 20.8189 23.4514 21.4097 24.0457L29.6383 32.2743L21.4097 40.5029C21.1212 40.789 20.959 41.1785 20.959 41.5848C20.959 41.9911 21.1212 42.3806 21.4097 42.6667C21.6958 42.9552 22.0853 43.1174 22.4916 43.1174C22.8979 43.1174 23.2874 42.9552 23.5735 42.6667L31.8021 34.4381L40.0307 42.6667C40.4172 43.0505 40.9791 43.1989 41.5048 43.0561C42.0304 42.9132 42.4399 42.5008 42.5791 41.9742C42.7182 41.4475 42.5658 40.8867 42.1792 40.5029L33.9507 32.2743L42.1792 24.0457C42.7701 23.4514 42.7701 22.4915 42.1792 21.8972Z" fill="#001E41"/>
<path fill-rule="evenodd" clip-rule="evenodd" d="M39.0449 0.906337C51.6198 3.75487 61.2406 13.8979 63.4211 26.6057C66.3929 43.9573 54.7437 60.4353 37.3944 63.4209C24.6754 65.636 11.8775 59.9533 4.99122 49.0328C-1.89507 38.1122 -1.50712 24.1147 5.97348 13.5924C13.4174 3.06472 26.47 -1.9422 39.0449 0.906337ZM21.994 59.0765C34.2467 63.5983 48.0087 59.3234 55.543 48.6552C62.2694 39.1309 62.6003 26.4936 56.3816 16.6303C50.1628 6.76702 38.6176 1.61764 27.124 3.58093C14.25 5.78001 4.45984 16.3546 3.25766 29.3596C2.05548 42.3646 9.74127 54.5547 21.994 59.0765Z" fill="#001E41"/>
</svg>
