<svg width="64" height="64" viewBox="0 0 64 64" fill="none" xmlns="http://www.w3.org/2000/svg">
<path fill-rule="evenodd" clip-rule="evenodd" d="M39.0449 0.906337C51.6198 3.75487 61.2406 13.8979 63.4211 26.6057C66.3929 43.9573 54.7437 60.4353 37.3944 63.4209C24.6754 65.636 11.8775 59.9533 4.99122 49.0328C-1.89507 38.1122 -1.50712 24.1147 5.97348 13.5924C13.4174 3.06472 26.47 -1.9422 39.0449 0.906337ZM21.994 59.0765C34.2467 63.5983 48.0087 59.3234 55.543 48.6552C62.2694 39.1309 62.6003 26.4936 56.3816 16.6303C50.1628 6.76702 38.6176 1.61764 27.124 3.58093C14.25 5.78001 4.45984 16.3546 3.25766 29.3596C2.05548 42.3646 9.74127 54.5547 21.994 59.0765Z" fill="#001E41"/>
<path d="M45.5166 20.4495L25.0061 40.3505L18.4689 34.179C17.8746 33.5882 16.9147 33.5882 16.3204 34.179C16.0319 34.4652 15.8696 34.8546 15.8696 35.2609C15.8696 35.6672 16.0319 36.0567 16.3204 36.3428L23.9394 43.5047C24.2204 43.7679 24.5906 43.9149 24.9756 43.9162C25.3732 43.9186 25.756 43.7655 26.0423 43.4895L47.6347 22.6438C48.0266 22.2654 48.187 21.7067 48.0553 21.1781C47.9236 20.6494 47.5199 20.2312 46.9962 20.0809C46.4726 19.9306 45.9085 20.0712 45.5166 20.4495V20.4495Z" fill="#001E41"/>
</svg>
