<svg width="64" height="64" viewBox="0 0 64 64" fill="none" xmlns="http://www.w3.org/2000/svg">
<path fill-rule="evenodd" clip-rule="evenodd" d="M56.2367 16.3687C56.2367 22.8386 50.9918 28.0835 44.5219 28.0835C38.0552 28.0758 32.8148 22.8354 32.8071 16.3687C32.8071 9.89882 38.052 4.65393 44.5219 4.65393C50.9918 4.65393 56.2367 9.89882 56.2367 16.3687ZM53.4541 16.3687C53.4541 11.4356 49.455 7.43654 44.5219 7.43654C39.592 7.4442 35.5974 11.4388 35.5897 16.3687C35.5897 21.3018 39.5888 25.3009 44.5219 25.3009C49.455 25.3009 53.4541 21.3018 53.4541 16.3687Z" fill="#001E41"/>
<path fill-rule="evenodd" clip-rule="evenodd" d="M59.7147 36.6818C59.826 36.8766 61.9129 47.4783 62.8451 52.7514C63.2552 54.4158 62.8754 56.1763 61.8155 57.5236C60.5376 58.8755 58.7645 59.649 56.9042 59.6662H32.9599C30.8879 59.8684 28.8474 59.0481 27.4921 57.4679C26.5528 56.0122 26.289 54.2213 26.7686 52.5566C26.9355 51.4575 28.8834 40.6053 29.7182 36.654C30.7755 31.7009 35.8538 30.6436 36.0625 30.6436H36.3268H40.4312C40.776 30.6445 41.1082 30.7734 41.3634 31.0053L44.5912 33.9409L47.7495 31.0192C48.006 30.779 48.3441 30.6448 48.6955 30.6436H51.826C55.5117 30.6608 58.7356 33.1285 59.7147 36.6818ZM56.9042 56.967C57.9413 56.9457 58.9333 56.539 59.6869 55.8262C60.2184 55.075 60.382 54.1239 60.1321 53.2383C59.4854 49.6384 58.2496 43.4206 57.5532 39.9168C57.2457 38.3697 57.0434 37.3516 57.0434 37.3218C56.3232 35.0104 54.1913 33.4298 51.7703 33.4123H49.1964L45.5095 36.8349C44.9778 37.3212 44.1628 37.3212 43.6312 36.8349L39.8468 33.3983H36.4382C34.4842 33.8292 32.9303 35.3081 32.4034 37.2383C31.5408 41.2592 29.4538 53.0018 29.4538 53.127V53.294C29.1997 54.1424 29.3053 55.0579 29.746 55.8262C30.606 56.6467 31.775 57.0617 32.9599 56.967H56.9042Z" fill="#001E41"/>
<path d="M27.6036 36.5705C27.8418 36.2883 27.9581 35.923 27.9268 35.555C27.8955 35.187 27.7191 34.8466 27.4367 34.6088C26.5726 33.9937 25.5769 33.5888 24.5288 33.4261H21.148C20.805 33.4232 20.473 33.5471 20.2158 33.774L17.294 36.3479L14.6506 33.7601C14.3892 33.5081 14.0397 33.3683 13.6767 33.3705H10.9914C7.69923 33.2831 4.76188 35.4261 3.84014 38.5879C3.84014 38.5879 2.1984 47.3114 1.19666 52.6957C0.692641 54.5127 1.08543 56.4611 2.25405 57.9409C3.31921 59.0585 4.80073 59.6833 6.34448 59.6661H22.261C23.0294 59.6661 23.6523 59.0432 23.6523 58.2748C23.6523 57.5064 23.0294 56.8835 22.261 56.8835H6.4697C5.68088 56.9153 4.91123 56.6355 4.32709 56.1044C3.76827 55.2528 3.62505 54.1939 3.93753 53.2244C4.92535 47.8679 6.55318 39.214 6.55318 39.214C7.17115 37.3133 8.99668 36.0715 10.9914 36.1948H13.1201L16.2784 39.2975C16.814 39.801 17.6489 39.801 18.1845 39.2975L21.6767 36.167H24.181C24.6992 36.2491 25.1958 36.4336 25.6419 36.7096C26.2221 37.2126 27.1001 37.1503 27.6036 36.5705Z" fill="#001E41"/>
<path fill-rule="evenodd" clip-rule="evenodd" d="M3.79862 30.88C3.36802 30.8789 2.96216 30.6786 2.69949 30.3374C2.22595 29.7372 2.32536 28.8674 2.9221 28.3895C4.67362 26.9758 5.85066 24.9729 6.23341 22.7548C6.24732 22.24 6.4421 17.2174 8.6821 14.6852C10.6926 11.9775 13.8661 10.3812 17.2386 10.3812C20.6111 10.3812 23.7846 11.9775 25.7951 14.6852C28.0351 17.2591 28.2438 22.2539 28.2438 22.8243C28.4664 25.913 31.5412 28.3895 31.5412 28.3895C31.9749 28.6799 32.2096 29.1885 32.1491 29.7068C32.0887 30.2252 31.7432 30.6661 31.2544 30.8488C30.7656 31.0316 30.2156 30.9254 29.8299 30.5739C28.4368 29.4211 27.2875 28.0021 26.4491 26.4C24.5459 29.6862 21.0361 31.7095 17.2386 31.7095C13.4411 31.7095 9.93131 29.6862 8.02819 26.4C7.19649 28.0065 6.04612 29.4267 4.64732 30.5739C4.40627 30.7674 4.10767 30.8751 3.79862 30.88ZM10.9499 16.2295C10.9116 16.2999 10.8649 16.3653 10.8108 16.4243V16.4522C9.94883 17.6736 9.41687 19.0969 9.26645 20.5843C9.31429 20.733 9.34236 20.8874 9.34993 21.0435C9.54191 25.2751 13.0363 28.6028 17.2723 28.5879C21.5082 28.5729 24.9791 25.2207 25.1412 20.9878C25.1461 20.8451 25.1743 20.7041 25.2247 20.5704C25.0772 19.0673 24.5401 17.6286 23.6664 16.3965L23.5412 16.2295C22.0538 14.2499 19.7218 13.0852 17.2456 13.0852C14.7694 13.0852 12.4374 14.2499 10.9499 16.2295Z" fill="#001E41"/>
</svg>
