<svg width="30" height="30" viewBox="0 0 30 30" fill="none" xmlns="http://www.w3.org/2000/svg">
<path d="M10 10L20 20" stroke="#323232" stroke-linecap="round" stroke-linejoin="round"/>
<path d="M20 10L10 20" stroke="#323232" stroke-linecap="round" stroke-linejoin="round"/>
<path fill-rule="evenodd" clip-rule="evenodd" d="M19.7157 9.58859C19.9106 9.4536 20.18 9.47288 20.3536 9.64645C20.5488 9.84171 20.5488 10.1583 20.3536 10.3536L15.7071 15L20.3536 19.6464C20.5488 19.8417 20.5488 20.1583 20.3536 20.3536C20.18 20.5271 19.9106 20.5464 19.7157 20.4114L19.6464 20.3536L15 15.7071L10.3536 20.3536L10.2843 20.4114C10.0894 20.5464 9.82001 20.5271 9.64645 20.3536C9.45118 20.1583 9.45118 19.8417 9.64645 19.6464L14.2929 15L9.64645 10.3536C9.45118 10.1583 9.45118 9.84171 9.64645 9.64645C9.82001 9.47288 10.0894 9.4536 10.2843 9.58859L10.3536 9.64645L15 14.2929L19.6464 9.64645L19.7157 9.58859Z" fill="#323232"/>
<mask id="mask0" mask-type="alpha" maskUnits="userSpaceOnUse" x="9" y="9" width="12" height="12">
<path fill-rule="evenodd" clip-rule="evenodd" d="M19.7157 9.58859C19.9106 9.4536 20.18 9.47288 20.3536 9.64645C20.5488 9.84171 20.5488 10.1583 20.3536 10.3536L15.7071 15L20.3536 19.6464C20.5488 19.8417 20.5488 20.1583 20.3536 20.3536C20.18 20.5271 19.9106 20.5464 19.7157 20.4114L19.6464 20.3536L15 15.7071L10.3536 20.3536L10.2843 20.4114C10.0894 20.5464 9.82001 20.5271 9.64645 20.3536C9.45118 20.1583 9.45118 19.8417 9.64645 19.6464L14.2929 15L9.64645 10.3536C9.45118 10.1583 9.45118 9.84171 9.64645 9.64645C9.82001 9.47288 10.0894 9.4536 10.2843 9.58859L10.3536 9.64645L15 14.2929L19.6464 9.64645L19.7157 9.58859Z" fill="white"/>
</mask>
<g mask="url(#mask0)">
<rect x="3" y="3" width="24" height="24" fill="currentColor"/>
</g>
</svg>
