<svg width="50" height="50" viewBox="0 0 50 50" fill="none" xmlns="http://www.w3.org/2000/svg">
<path d="M34.9839 3.64648H14.0612C13.4859 3.64648 13.0195 4.11284 13.0195 4.68815V45.3131C13.0195 45.8885 13.4859 46.3548 14.0612 46.3548H44.2695C44.8448 46.3548 45.3112 45.8885 45.3112 45.3131V13.9738C45.3112 13.6975 45.2015 13.4326 45.0061 13.2372L35.7205 3.95159C35.5251 3.75622 35.2602 3.64648 34.9839 3.64648Z" fill="white" stroke="#979593" stroke-width="1.04167" stroke-miterlimit="10"/>
<path d="M34.8945 3.64648V13.0215C34.8945 13.5968 35.3609 14.0632 35.9362 14.0632H45.3112" stroke="#979593" stroke-width="1.04167" stroke-miterlimit="10"/>
<path d="M41.1458 31.7702H25V30.7285H41.1458C41.4335 30.7285 41.6667 30.9617 41.6667 31.2493C41.6667 31.537 41.4335 31.7702 41.1458 31.7702ZM41.1458 28.6452H25V27.6035H41.1458C41.4335 27.6035 41.6667 27.8367 41.6667 28.1243C41.6667 28.412 41.4335 28.6452 41.1458 28.6452ZM41.1458 25.5202H25V24.4785H41.1458C41.4335 24.4785 41.6667 24.7117 41.6667 24.9993C41.6667 25.287 41.4335 25.5202 41.1458 25.5202ZM41.1458 22.3952H25V21.3535H41.1458C41.4335 21.3535 41.6667 21.5867 41.6667 21.8743C41.6667 22.162 41.4335 22.3952 41.1458 22.3952ZM41.1458 34.8952H25V33.8535H41.1458C41.4335 33.8535 41.6667 34.0867 41.6667 34.3743C41.6667 34.662 41.4335 34.8952 41.1458 34.8952Z" fill="#C8C6C4"/>
<path d="M6.2513 38.5423H22.918C24.0685 38.5423 25.0013 37.6096 25.0013 36.459V19.7923C25.0013 18.6417 24.0685 17.709 22.918 17.709H6.2513C5.10073 17.709 4.16797 18.6417 4.16797 19.7923V36.459C4.16797 37.6096 5.10073 38.5423 6.2513 38.5423Z" fill="#185ABD"/>
<path d="M11.2641 31.5855C11.2985 31.8574 11.3208 32.0943 11.3316 32.2968H11.3712C11.3872 32.1049 11.4176 31.8735 11.4624 31.6016C11.5073 31.3302 11.5511 31.1011 11.5935 30.9146L13.4342 22.916H15.8145L17.7188 30.7948C17.8141 31.1837 17.8934 31.6788 17.9568 32.2808H17.9884C18.0149 31.8652 18.081 31.3858 18.1868 30.8425L19.7103 22.916H21.8763L19.2105 34.3743H16.6793L14.8623 26.7835C14.8094 26.5649 14.7499 26.2802 14.6838 25.9285C14.6177 25.5772 14.5767 25.3214 14.5609 25.1616H14.5292C14.508 25.348 14.467 25.6249 14.4061 25.9923C14.3452 26.3601 14.2962 26.6315 14.2593 26.8074L12.5534 34.3743H9.98271L7.29297 22.916H9.49865L11.1571 30.9307C11.1941 31.0955 11.2296 31.3141 11.2641 31.5855Z" fill="white"/>
</svg>
