<svg width="30" height="30" viewBox="0 0 30 30" fill="none" xmlns="http://www.w3.org/2000/svg">
<path d="M15 16.5L14.6589 16.8657C14.851 17.0448 15.1489 17.0448 15.341 16.8657L15 16.5ZM4.08266 5.63435C3.88072 5.446 3.56433 5.45703 3.37599 5.65898C3.18764 5.86092 3.19867 6.17731 3.40061 6.36565L4.08266 5.63435ZM26.5993 6.36566C26.8013 6.17731 26.8123 5.86092 26.624 5.65898C26.4356 5.45703 26.1192 5.44601 25.9173 5.63435L26.5993 6.36566ZM21.8536 20.6464C21.6583 20.4512 21.3417 20.4512 21.1464 20.6464C20.9512 20.8417 20.9512 21.1583 21.1464 21.3536L21.8536 20.6464ZM23.5 23L23.1464 23.3536C23.3417 23.5488 23.6583 23.5488 23.8536 23.3536L23.5 23ZM26.8536 20.3536C27.0488 20.1583 27.0488 19.8417 26.8536 19.6464C26.6583 19.4512 26.3417 19.4512 26.1464 19.6464L26.8536 20.3536ZM26.5 17.4996C26.5 17.7758 26.7239 17.9996 27 17.9996C27.2761 17.9996 27.5 17.7758 27.5 17.4996H26.5ZM19.416 24C19.6922 24 19.916 23.7761 19.916 23.5C19.916 23.2239 19.6922 23 19.416 23V24ZM19.7542 16.625L20.101 16.2648L20.0971 16.2612L19.7542 16.625ZM20.4675 18.0062C20.6664 18.1978 20.9829 18.1918 21.1744 17.9929C21.366 17.794 21.3601 17.4775 21.1612 17.2859L20.4675 18.0062ZM5 6H25V5H5V6ZM3.5 21.5V7.5H2.5V21.5H3.5ZM5 23C4.17157 23 3.5 22.3284 3.5 21.5H2.5C2.5 22.8807 3.61929 24 5 24V23ZM25 6C25.8284 6 26.5 6.67157 26.5 7.5H27.5C27.5 6.11929 26.3807 5 25 5V6ZM5 5C3.61929 5 2.5 6.11929 2.5 7.5H3.5C3.5 6.67157 4.17157 6 5 6V5ZM15.341 16.1343L4.08266 5.63435L3.40061 6.36565L14.6589 16.8657L15.341 16.1343ZM25.9173 5.63435L14.6589 16.1343L15.341 16.8657L26.5993 6.36566L25.9173 5.63435ZM4.34331 23.3635L13.3433 14.8635L12.6567 14.1365L3.65669 22.6365L4.34331 23.3635ZM28.5 21.5C28.5 23.9853 26.4853 26 24 26V27C27.0376 27 29.5 24.5376 29.5 21.5H28.5ZM24 26C21.5147 26 19.5 23.9853 19.5 21.5H18.5C18.5 24.5376 20.9624 27 24 27V26ZM19.5 21.5C19.5 19.0147 21.5147 17 24 17V16C20.9624 16 18.5 18.4624 18.5 21.5H19.5ZM24 17C26.4853 17 28.5 19.0147 28.5 21.5H29.5C29.5 18.4624 27.0376 16 24 16V17ZM21.1464 21.3536L23.1464 23.3536L23.8536 22.6464L21.8536 20.6464L21.1464 21.3536ZM23.8536 23.3536L26.8536 20.3536L26.1464 19.6464L23.1464 22.6464L23.8536 23.3536ZM26.5 7.5V17.4996H27.5V7.5H26.5ZM19.416 23H5V24H19.416V23ZM17.157 14.8638L19.4112 16.9888L20.0971 16.2612L17.843 14.1362L17.157 14.8638ZM19.4073 16.9851L20.4675 18.0062L21.1612 17.2859L20.101 16.2649L19.4073 16.9851Z" fill="currentColor"/>
</svg>
