<svg width="100%" height="100%" viewBox="0 0 93 93" version="1.1" xmlns="http://www.w3.org/2000/svg" xmlns:xlink="http://www.w3.org/1999/xlink">
    <g id="Icons_envelope" stroke="none" stroke-width="1" fill="none" fill-rule="evenodd">
        <g id="Group-8" transform="translate(12.000000, 11.000000)">
            <path d="M13.155,15.492 L13.155,18.082 L2.744,25.968 L13.155,33.83 L13.1556134,34.0127337 L18.245,37.673 L26.976,44.265 L43.053,44.265 L66.737,25.977 L56.433,18.173 L56.433,15.582 L69.060975,25.1464375 C69.3154884,25.3387847 69.470125,25.6423206 69.470125,25.9694875 L69.470125,64.6278625 C69.470125,65.1982375 69.00775,65.6606125 68.437375,65.6606125 L1.033,65.6606125 C0.4625,65.6606125 -2.84217094e-14,65.1982375 -2.84217094e-14,64.6278625 L-2.84217094e-14,25.9694875 C-2.84217094e-14,25.6424981 0.154308882,25.3390076 0.409331602,25.146017 L0.40935,25.1459375 L13.155,15.492 Z M43.057,46.331 L26.412,46.331 L4.1069125,63.224875 L65.3634125,63.224875 L43.057,46.331 Z M2.065625,28.0434875 L2.065,62.179 L24.636,45.085 L2.065625,28.0434875 Z M67.404375,28.0717375 L45.104,45.29 L67.404,62.179 L67.404375,28.0717375 Z M36.67585,0.6181875 L46.815,8.298 L43.395,8.298 L35.428725,2.2645625 C35.072225,1.9945625 34.397975,1.9945625 34.0416,2.2645625 L26.074,8.298 L22.653,8.298 L32.794475,0.6181875 C33.88235,-0.2060625 35.587475,-0.2060625 36.67585,0.6181875 Z" id="Combined-Shape" fill="currentColor"></path>
            <path d="M37.9736375,22.7765875 C37.6432625,22.6772125 37.0812625,22.5450875 36.3213875,22.5450875 C33.4132625,22.5450875 31.0666375,25.2880875 31.0666375,28.4935875 C31.0666375,29.9477125 31.7938875,31.0053375 33.2481375,31.0053375 C35.1645125,31.0053375 36.9162625,28.5598375 37.2798875,26.5107125 L37.9736375,22.7765875 Z M39.7916375,37.0529625 C37.9736375,38.0112125 36.1230125,38.3749625 33.9087625,38.3749625 C28.4892625,38.3749625 23.8955125,34.4092125 23.8955125,28.0639625 C23.8955125,21.2563375 28.6213875,15.3737125 35.9577625,15.3737125 C41.7080125,15.3737125 45.5748875,19.4054625 45.5748875,24.9245875 C45.5748875,29.8815875 42.7986375,32.7897125 39.6922625,32.7897125 C38.3702625,32.7897125 37.1476375,31.8977125 37.2465125,29.8815875 L37.1145125,29.8815875 C35.9577625,31.8314625 34.4375125,32.7897125 32.4550125,32.7897125 C30.5378875,32.7897125 28.8857625,31.2365875 28.8857625,28.6259625 C28.8857625,24.5280875 32.1245125,20.7937125 36.7178875,20.7937125 C38.1392625,20.7937125 39.3947625,21.0910875 40.2541375,21.4874625 L39.1305125,27.4692125 C38.6347625,29.9809625 39.0311375,31.1374625 40.1218875,31.1703375 C41.8073875,31.2035875 43.6910125,28.9563375 43.6910125,25.1228375 C43.6910125,20.3310875 40.8158875,16.8939625 35.6935125,16.8939625 C30.3068875,16.8939625 25.7791375,21.1572125 25.7791375,27.8657125 C25.7791375,33.3847125 29.3813875,36.7885875 34.2723875,36.7885875 C36.1562625,36.7885875 37.9077625,36.3920875 39.2627625,35.6318375 L39.7916375,37.0529625 Z" id="Fill-12" fill="currentColor"></path>
            <polyline id="Path-13" stroke="currentColor" stroke-width="2" stroke-linecap="round" stroke-linejoin="round" points="13.1556134 34.4621895 13.1556134 8.9999875 56.4335369 8.9999875 56.4335369 34.4621895"></polyline>
        </g>
    </g>
</svg>