<svg xmlns="http://www.w3.org/2000/svg" width="31" height="31" viewBox="0 0 31 31" fill="none">
<path d="M14.5469 3.5C8.1956 3.5 3.04688 8.64873 3.04688 15C3.04688 21.3513 8.1956 26.5 14.5469 26.5C20.8981 26.5 26.0469 21.3513 26.0469 15C26.0469 8.64873 20.8981 3.5 14.5469 3.5Z" fill="#E31A37" stroke="currentColor"/>
<path d="M14.1406 17C14.1406 17.2761 14.3645 17.5 14.6406 17.5C14.9168 17.5 15.1406 17.2761 15.1406 17H14.1406ZM15.1406 9C15.1406 8.72386 14.9168 8.5 14.6406 8.5C14.3645 8.5 14.1406 8.72386 14.1406 9H15.1406ZM15.1406 17V9H14.1406V17H15.1406Z" fill="currentColor"/>
<circle cx="14.6406" cy="20" r="0.59375" fill="black" stroke="currentColor"/>
</svg>