<svg width="100%" height="100%" viewBox="0 0 66 66" version="1.1" xmlns="http://www.w3.org/2000/svg" xmlns:xlink="http://www.w3.org/1999/xlink">
    <g id="icons-house" stroke="none" stroke-width="1" fill="none" fill-rule="evenodd">
        <path d="M26.8731111,51.010584 L29.9968671,51.010584 L29.9968671,47.3090687 L26.8731111,47.3090687 L26.8731111,51.010584 Z M22.4993526,51.010584 L25.6231087,51.010584 L25.6231087,47.3090687 L22.4993526,47.3090687 L22.4993526,51.010584 Z M11.2537058,48.5429071 L13.7530856,48.5429071 L13.7530856,42.9906341 L11.2537058,42.9906341 L11.2537058,48.5429071 Z M7.50494853,48.5429071 L10.0043284,48.5429071 L10.0043284,42.9906341 L7.50494853,42.9906341 L7.50494853,48.5429071 Z M3.75619126,48.5429071 L6.25557111,48.5429071 L6.25557111,42.9906341 L3.75619126,42.9906341 L3.75619126,48.5429071 Z M26.8731111,46.0752302 L29.9968671,46.0752302 L29.9968671,42.3737149 L26.8731111,42.3737149 L26.8731111,46.0752302 Z M22.4993526,46.0752302 L25.6231087,46.0752302 L25.6231087,42.3737149 L22.4993526,42.3737149 L22.4993526,46.0752302 Z M26.8731111,41.1398765 L29.9968671,41.1398765 L29.9968671,37.4383611 L26.8731111,37.4383611 L26.8731111,41.1398765 Z M22.4993526,41.1398765 L25.6231087,41.1398765 L25.6231087,37.4383611 L22.4993526,37.4383611 L22.4993526,41.1398765 Z M49.9894059,44.2244726 L51.2387833,44.2244726 L51.2387833,36.8214419 L49.9894059,36.8214419 L49.9894059,44.2244726 Z M46.2406486,44.2244726 L47.4900261,44.2244726 L47.4900261,36.8214419 L46.2406486,36.8214419 L46.2406486,44.2244726 Z M42.4918914,44.2244726 L43.7412688,44.2244726 L43.7412688,36.8214419 L42.4918914,36.8214419 L42.4918914,44.2244726 Z M3.75619126,41.7567957 L13.7524606,41.7567957 L13.7524606,35.5876035 L3.75619126,35.5876035 L3.75619126,41.7567957 Z M38.7431341,48.5429071 L54.3625394,48.5429071 L54.3625394,33.7368458 L38.7431341,33.7368458 L38.7431341,48.5429071 Z M13.7524606,29.1870666 L13.7524606,34.353765 L3.26806532,34.353765 L13.7524606,29.1870666 Z M38.7431341,25.716896 L46.7093996,25.716896 L57.2912951,32.5030074 L38.7431341,32.5030074 L38.7431341,25.716896 Z M26.8731111,27.5676536 L29.9968671,27.5676536 L29.9968671,24.4830575 L26.8731111,24.4830575 L26.8731111,27.5676536 Z M22.4993526,27.5676536 L25.6231087,27.5676536 L25.6231087,24.4830575 L22.4993526,24.4830575 L22.4993526,27.5676536 Z M25.6231087,17.7931855 L25.6231087,23.2492191 L22.4993526,23.2492191 L22.4993526,20.7815422 C22.4993526,20.1368616 23.0162286,19.3175929 23.7881051,18.6994398 C24.3487312,18.2497057 25.0274825,17.9375446 25.6231087,17.7931855 L25.6231087,17.7931855 Z M26.8731111,17.774061 C27.5068623,17.9141017 28.2056137,18.2423027 28.7668648,18.6994398 C29.5212412,19.3145083 29.9968671,20.1245232 29.9968671,20.7815422 L29.9968671,23.2492191 L26.8731111,23.2492191 L26.8731111,17.774061 Z M26.2481099,16.4631077 C25.1243577,16.4631077 23.9474804,16.9850213 22.9874786,17.7549365 C22.0274767,18.5242348 21.2499752,19.5754651 21.2499752,20.7815422 L21.2499752,28.8014921 L31.2462446,28.8014921 L31.2462446,20.7815422 C31.2462446,19.5878035 30.5162432,18.5279363 29.5674913,17.7549365 C28.6181145,16.9813198 27.4156121,16.4631077 26.2481099,16.4631077 L26.2481099,16.4631077 Z M26.2481099,10.9879496 L37.4937567,17.4267355 C37.4931317,28.007517 37.4937567,38.5802786 37.4937567,49.1598263 C37.4937567,49.4824751 37.7918823,49.7767455 38.1187579,49.7767455 L55.6119168,49.7767455 L55.6119168,52.2444224 L31.2462446,52.2444224 L31.2462446,36.8214419 C31.2462446,36.4987932 30.948744,36.2045227 30.6212434,36.2045227 L21.7574762,36.2045227 C21.4712256,36.2588116 21.2449752,36.5333407 21.2499752,36.8214419 L21.2499752,52.2444224 L2.50681384,52.2444224 L2.50681384,49.7767455 L14.3774619,49.7767455 C14.7043375,49.7767455 15.0018381,49.4824751 15.0018381,49.1598263 L15.0018381,17.4267355 L26.2481099,10.9879496 Z M17.5012179,9.06007702 L19.9999728,9.06007702 L19.9999728,13.1280424 L17.5012179,14.5543596 L17.5012179,9.06007702 Z M16.2518405,8.4431578 L16.2518405,15.2675182 L9.69120277,19.0078994 L10.316204,20.0683836 L13.7524606,18.1016451 L13.7524606,27.7989983 L0.359309675,34.4117555 C0.102434177,34.5302039 -0.0488161166,34.8361959 0.0143090058,35.1088742 C0.0780591294,35.3815525 0.349309655,35.591305 0.632435204,35.5876035 L2.50681384,35.5876035 L2.50681384,48.5429071 L1.88181263,48.5429071 C1.55493699,48.5429071 1.25743642,48.8371776 1.25743642,49.1598263 L1.25743642,52.8613416 C1.25743642,53.1839904 1.55493699,53.4782609 1.88181263,53.4782609 L56.236918,53.4782609 C56.5644187,53.4782609 56.8619192,53.1839904 56.8619192,52.8613416 L56.8619192,49.1598263 C56.8619192,48.8371776 56.5644187,48.5429071 56.236918,48.5429071 L55.6119168,48.5429071 L55.6119168,33.7368458 L59.3612991,33.7368458 C59.6319246,33.7436319 59.8956751,33.5560885 59.9750503,33.300067 C60.0538004,33.0440455 59.9406752,32.742989 59.7125498,32.5992468 L47.2169005,24.5792969 C47.1131503,24.5139035 46.9894001,24.4799729 46.8650249,24.4830575 L38.7431341,24.4830575 L38.7431341,18.1016451 L42.1793908,20.0683836 L42.804392,19.0078994 C37.3337564,15.9862291 31.991871,12.710388 26.5018604,9.73498665 C26.286235,9.60111518 26.1537347,9.66342402 25.9356093,9.75411114 L21.2499752,12.4142668 L21.2499752,8.4431578 C21.2499752,8.12050905 20.9518496,7.82616204 20.624974,7.82616204 L16.8762167,7.82616204 C16.2518405,7.81821863 16.2518405,8.4431578 16.2518405,8.4431578 L16.2518405,8.4431578 Z" id="House" fill="currentColor"></path>
        <circle id="Oval" fill="currentColor" cx="55" cy="48" r="11"></circle>
        <path d="M60.6592851,44.6512113 C60.7955407,44.5149557 61.0164547,44.5149557 61.1527103,44.6512113 C61.2738263,44.7723274 61.2872837,44.960334 61.1930823,45.0963147 L61.1527103,45.1446364 L53.9279123,52.3694344 L49.4943486,47.9358706 C49.358093,47.799615 49.358093,47.578701 49.4943486,47.4424454 C49.6154646,47.3213294 49.8034713,47.307872 49.9394519,47.4020734 L49.9877737,47.4424454 L53.9279123,51.3826586 L60.6592851,44.6512113 Z" id="Check" fill="#FFFFFF" fill-rule="nonzero"></path>
    </g>
</svg>