<svg width="100%" height="100%" viewBox="0 0 57 50" version="1.1" xmlns="http://www.w3.org/2000/svg" xmlns:xlink="http://www.w3.org/1999/xlink">
    <g id="Experiments" stroke="none" stroke-width="1" fill="none" fill-rule="evenodd">
        <g transform="translate(-538.000000, -509.000000)">
            <g id="Group-25" transform="translate(538.000000, 509.000000)" fill="currentColor">
                <path d="M44.1795572,1.99563259 L44.2459482,2.10413367 L48.3090769,8.9605312 C48.3339243,9.00246046 48.3537781,9.04598378 48.3688145,9.09040311 L49.5020441,9.0909345 C51.8916127,9.0909345 53.8331459,11.0238673 53.8331459,13.4091061 L53.8331459,13.4091061 L53.833,18.474 L53.8603562,18.5156021 L56.4077607,22.8274721 C57.6045437,24.8534993 56.9285351,27.4355173 54.911535,28.6525126 L54.8001901,28.7175289 L53.833,29.262 L53.8331459,37.0454135 C53.8331459,39.3604981 52.004141,41.2494918 49.7116877,41.3586064 L49.5020441,41.363585 L32.53,41.363 L18.1795673,49.4384603 C16.1620492,50.5737525 13.5920895,49.9335007 12.3724119,48.0058563 L12.3060533,47.8974436 L8.435,41.363 L7.49789654,41.363585 C5.17860942,41.363585 3.28139017,39.542682 3.17179535,37.2546642 L3.16679476,37.0454135 L3.166,31.772 L0.588129742,27.30308 C-0.600793066,25.2391686 0.0706158003,22.6121781 2.08130652,21.3718034 L2.19230564,21.3055334 L3.166,20.742 L3.16679476,13.4091061 C3.16679476,11.0940214 4.99579968,9.2050277 7.28825298,9.0959131 L7.49789654,9.0909345 L23.5627308,9.09058939 C23.6089023,8.95942784 23.6949705,8.84189942 23.8152805,8.75815658 L23.8707787,8.72334531 L38.3710851,0.562700089 C40.3900409,-0.574602132 42.9593186,0.0664127694 44.1795572,1.99563259 Z M29.754,41.363 L10.014,41.363 L13.4723825,47.2002262 C14.2661854,48.5414294 16.0174618,49.024086 17.4192591,48.3010802 L17.5164754,48.2486774 L29.754,41.363 Z M49.5020441,10.4545676 L7.49789654,10.4545676 C5.85506692,10.4545676 4.52392917,11.7798089 4.52392917,13.4091061 L4.52392917,13.4091061 L4.52392917,37.0454135 C4.52392917,38.6747107 5.85506692,39.9999519 7.49789654,39.9999519 L7.49789654,39.9999519 L49.5020441,39.9999519 C51.1448738,39.9999519 52.4760115,38.6747107 52.4760115,37.0454135 L52.4760115,37.0454135 L52.4760115,13.4091061 C52.4760115,11.7798089 51.1448738,10.4545676 49.5020441,10.4545676 L49.5020441,10.4545676 Z M16.7381388,25.4545319 C21.2304341,25.4545319 24.8809453,29.0113725 24.8809453,33.4090585 L24.8809453,33.4090585 L24.8809453,35.227236 C24.8809453,35.6037929 24.5771404,35.9090525 24.2023781,35.9090525 L24.2023781,35.9090525 L9.27389959,35.9090525 C8.89913727,35.9090525 8.59533239,35.6037929 8.59533239,35.227236 L8.59533239,35.227236 L8.59533239,33.4090585 C8.59533239,29.0113725 12.2458436,25.4545319 16.7381388,25.4545319 Z M47.273663,34.5454194 C47.6484253,34.5454194 47.9522302,34.8506791 47.9522302,35.227236 C47.9522302,35.5816425 47.6831158,35.8728929 47.3390135,35.9059314 L47.273663,35.9090525 L40.0356128,35.9090525 C39.6608505,35.9090525 39.3570456,35.6037929 39.3570456,35.227236 C39.3570456,34.8728295 39.6261599,34.581579 39.9702622,34.5485406 L40.0356128,34.5454194 L47.273663,34.5454194 Z M16.7381388,26.8181651 C12.9861819,26.8181651 9.95246679,29.7740363 9.95246679,33.4090585 L9.95246679,33.4090585 L9.95246679,34.5454194 L23.5238109,34.5454194 L23.5238109,33.4090585 C23.5238109,29.8212443 20.5683819,26.8950555 16.8839505,26.8196557 L16.8839505,26.8196557 Z M47.273663,30.4545201 C47.6484253,30.4545201 47.9522302,30.7597797 47.9522302,31.1363366 C47.9522302,31.4907431 47.6831158,31.7819936 47.3390135,31.815032 L47.273663,31.8181532 L29.1785375,31.8181532 C28.8037752,31.8181532 28.4999703,31.5128935 28.4999703,31.1363366 C28.4999703,30.7819301 28.7690847,30.4906797 29.113187,30.4576412 L29.1785375,30.4545201 L47.273663,30.4545201 Z M3.166,22.315 L2.86891308,22.487609 C1.45514873,23.3041325 0.950966316,25.0901899 1.70888596,26.5225657 L1.76252217,26.6196641 L3.166,29.054 L3.166,22.315 Z M53.833,21.141 L53.833,27.698 L54.1355856,27.5285985 C55.5457405,26.7320887 56.0458234,25.0031947 55.2939415,23.6174446 L55.2407328,23.5235083 L53.833,21.141 Z M47.273663,25.4545319 C47.6484253,25.4545319 47.9522302,25.7597916 47.9522302,26.1363485 C47.9522302,26.490755 47.6831158,26.7820055 47.3390135,26.8150439 L47.273663,26.8181651 L29.1785375,26.8181651 C28.8037752,26.8181651 28.4999703,26.5129054 28.4999703,26.1363485 C28.4999703,25.781942 28.7690847,25.4906916 29.113187,25.4576531 L29.1785375,25.4545319 L47.273663,25.4545319 Z M16.5119498,14.545467 C19.3856489,14.545467 21.7142983,16.8852673 21.7142983,19.7727273 C21.7142983,22.6601873 19.3856489,24.9999876 16.5119498,24.9999876 C13.6382506,24.9999876 11.3096012,22.6601873 11.3096012,19.7727273 C11.3096012,16.8852673 13.6382506,14.545467 16.5119498,14.545467 Z M16.5119498,15.9091001 C14.3877753,15.9091001 12.6667356,17.6383811 12.6667356,19.7727273 C12.6667356,21.9070735 14.3877753,23.6363545 16.5119498,23.6363545 C18.6361243,23.6363545 20.3571639,21.9070735 20.3571639,19.7727273 C20.3571639,17.6383811 18.6361243,15.9091001 16.5119498,15.9091001 Z M40.0356128,19.5454551 C40.4103751,19.5454551 40.71418,19.8507148 40.71418,20.2272717 C40.71418,20.5816781 40.4450656,20.8729286 40.1009633,20.9059671 L40.0356128,20.9090882 L29.1785375,20.9090882 C28.8037752,20.9090882 28.4999703,20.6038285 28.4999703,20.2272717 C28.4999703,19.8728652 28.7690847,19.5816147 29.113187,19.5485763 L29.1785375,19.5454551 L40.0356128,19.5454551 Z M40.0356128,14.545467 C40.4103751,14.545467 40.71418,14.8507267 40.71418,15.2272835 C40.71418,15.58169 40.4450656,15.8729405 40.1009633,15.9059789 L40.0356128,15.9091001 L29.1785375,15.9091001 C28.8037752,15.9091001 28.4999703,15.6038404 28.4999703,15.2272835 C28.4999703,14.8728771 28.7690847,14.5816266 29.113187,14.5485882 L29.1785375,14.545467 L40.0356128,14.545467 Z M39.1318176,1.69978488 L39.0345174,1.75229135 L25.995,9.09 L46.806,9.09 L43.0796403,2.80138697 C42.2850373,1.45843981 40.5347661,0.97533729 39.1318176,1.69978488 Z" id="Combined-Shape"></path>
            </g>
        </g>
    </g>
</svg>