<svg width="30" height="30" viewBox="0 0 30 30" fill="none" xmlns="http://www.w3.org/2000/svg">
<path fill-rule="evenodd" clip-rule="evenodd" d="M3 23.6299H27.9531V10.6109H3V23.6299Z" stroke="currentColor" stroke-linecap="round" stroke-linejoin="round"/>
<path d="M4.62738 8.44106H26.3258" stroke="currentColor" stroke-linecap="round" stroke-linejoin="round"/>
<path d="M24.1559 6.27123H6.79718" stroke="currentColor" stroke-linecap="round" stroke-linejoin="round"/>
<path fill-rule="evenodd" clip-rule="evenodd" d="M23.6134 21.4601H7.33966C7.33966 20.5612 6.61114 19.8327 5.71228 19.8327V14.4081C6.61114 14.4081 7.33966 13.8657 7.33966 12.7807H23.6134C23.6134 13.8657 24.342 14.4081 25.2408 14.4081V19.8327C24.342 19.8327 23.6134 20.5612 23.6134 21.4601Z" stroke="currentColor" stroke-linecap="round" stroke-linejoin="round"/>
<path d="M9.50946 17.1204H10.5944" stroke="currentColor" stroke-linecap="round" stroke-linejoin="round"/>
<path d="M20.3586 17.1204H21.4436" stroke="currentColor" stroke-linecap="round" stroke-linejoin="round"/>
<path fill-rule="evenodd" clip-rule="evenodd" d="M17.6464 17.1154C17.6464 18.3137 16.6748 19.2852 15.4765 19.2852C14.2782 19.2852 13.3067 18.3137 13.3067 17.1154C13.3067 15.9171 14.2782 14.9455 15.4765 14.9455C16.6748 14.9455 17.6464 15.9171 17.6464 17.1154Z" stroke="currentColor" stroke-linecap="round" stroke-linejoin="round"/>
</svg>
