<svg width="111" height="111" viewBox="0 0 111 111" fill="none" xmlns="http://www.w3.org/2000/svg">
<path d="M105.298 53.6492C105.298 80.1313 83.8305 101.599 57.3484 101.599C30.8664 101.599 9.39844 80.1313 9.39844 53.6492C9.39844 27.1672 30.8664 5.69922 57.3484 5.69922C83.8305 5.69922 105.298 27.1672 105.298 53.6492Z" stroke="url(#paint0_linear_9233:9108)" stroke-width="4"/>
<g clip-path="url(#clip0_9233:9108)">
<path d="M57.3541 23.0673C57.0541 23.0682 56.7568 23.0098 56.4795 22.8954C56.2021 22.781 55.9501 22.6129 55.7379 22.4007C55.5258 22.1886 55.3576 21.9365 55.2432 21.6592C55.1288 21.3818 55.0704 21.0845 55.0713 20.7845V13.3824C55.0713 12.777 55.3118 12.1963 55.7399 11.7682C56.168 11.3401 56.7487 11.0996 57.3541 11.0996C57.959 11.1014 58.5386 11.3425 58.9663 11.7702C59.394 12.1979 59.6351 12.7775 59.6369 13.3824V20.7845C59.6369 21.3899 59.3964 21.9706 58.9683 22.3987C58.5402 22.8268 57.9596 23.0673 57.3541 23.0673Z" fill="url(#paint1_linear_9233:9108)"/>
<path d="M47.9017 24.5641C47.3261 24.7516 46.6997 24.7029 46.1601 24.4286C45.6205 24.1543 45.2119 23.677 45.0242 23.1015L42.7346 16.0616C42.6419 15.7762 42.6064 15.4754 42.6301 15.1762C42.6538 14.877 42.7362 14.5855 42.8727 14.3182C43.0092 14.051 43.197 13.8133 43.4255 13.6187C43.6539 13.4241 43.9185 13.2764 44.204 13.1842C44.7796 12.9967 45.406 13.0455 45.9456 13.3197C46.4852 13.594 46.8938 14.0714 47.0815 14.6469L49.3711 21.6935C49.4637 21.9785 49.4992 22.2789 49.4754 22.5776C49.4516 22.8763 49.3691 23.1673 49.2325 23.434C49.096 23.7007 48.9082 23.9378 48.6798 24.1318C48.4514 24.3257 48.187 24.4726 47.9017 24.5641Z" fill="url(#paint2_linear_9233:9108)"/>
<path d="M39.3787 28.9384C38.8879 29.2934 38.2765 29.4395 37.6783 29.3447C37.0801 29.2499 36.5438 28.9219 36.1868 28.4326L31.833 22.4453C31.478 21.9546 31.3319 21.3432 31.4267 20.7449C31.5215 20.1467 31.8495 19.6104 32.3388 19.2535C32.8296 18.8985 33.441 18.7524 34.0392 18.8472C34.6374 18.942 35.1737 19.2699 35.5307 19.7593L39.8844 25.7465C40.2394 26.2373 40.3856 26.8487 40.2908 27.4469C40.196 28.0451 39.868 28.5814 39.3787 28.9384Z" fill="url(#paint3_linear_9233:9108)"/>
<path d="M32.6327 35.6775C32.2758 36.1668 31.7395 36.4948 31.1413 36.5896C30.5431 36.6844 29.9316 36.5382 29.4409 36.1832L23.4536 31.8295C22.9643 31.4725 22.6363 30.9363 22.5415 30.338C22.4467 29.7398 22.5928 29.1284 22.9478 28.6376C23.3048 28.1483 23.8411 27.8203 24.4393 27.7256C25.0375 27.6308 25.649 27.7769 26.1397 28.1319L32.127 32.4856C32.6163 32.8426 32.9443 33.3789 33.0391 33.9771C33.1339 34.5753 32.9878 35.1867 32.6327 35.6775Z" fill="url(#paint4_linear_9233:9108)"/>
<path d="M28.2653 44.2005C28.1738 44.4858 28.0269 44.7502 27.833 44.9786C27.639 45.207 27.4019 45.3948 27.1352 45.5314C26.8685 45.6679 26.5775 45.7504 26.2788 45.7742C25.9801 45.798 25.6797 45.7625 25.3947 45.67L18.3481 43.3803C17.7726 43.1926 17.2952 42.784 17.0209 42.2444C16.7467 41.7048 16.6979 41.0784 16.8854 40.5029C16.9777 40.2173 17.1253 39.9527 17.3199 39.7243C17.5145 39.4959 17.7522 39.308 18.0195 39.1715C18.2867 39.035 18.5782 38.9526 18.8774 38.9289C19.1766 38.9052 19.4775 38.9407 19.7629 39.0334L26.8027 41.323C27.3782 41.5107 27.8555 41.9193 28.1298 42.4589C28.4041 42.9985 28.4528 43.625 28.2653 44.2005Z" fill="url(#paint5_linear_9233:9108)"/>
<path d="M26.7753 53.653C26.7735 54.259 26.5315 54.8397 26.1023 55.2676C25.6731 55.6955 25.0917 55.9358 24.4857 55.9358H17.0836C16.4787 55.934 15.8991 55.6929 15.4714 55.2652C15.0437 54.8375 14.8026 54.2579 14.8008 53.653C14.8008 53.3532 14.8598 53.0564 14.9746 52.7794C15.0893 52.5024 15.2574 52.2508 15.4694 52.0388C15.6814 51.8268 15.933 51.6587 16.21 51.5439C16.487 51.4292 16.7838 51.3702 17.0836 51.3702H24.4857C24.786 51.3693 25.0836 51.4276 25.3614 51.542C25.6391 51.6563 25.8916 51.8243 26.1043 52.0364C26.317 52.2485 26.4858 52.5004 26.6009 52.7778C26.7161 53.0552 26.7753 53.3526 26.7753 53.653Z" fill="url(#paint6_linear_9233:9108)"/>
<path d="M28.2654 63.1123C28.3592 63.3973 28.3957 63.698 28.3729 63.9971C28.3501 64.2962 28.2683 64.5878 28.1324 64.8552C27.9965 65.1226 27.809 65.3605 27.5808 65.5552C27.3526 65.75 27.0882 65.8976 26.8027 65.9898L19.7629 68.2794C19.1892 68.458 18.5682 68.4031 18.0346 68.1268C17.501 67.8504 17.098 67.3748 16.9128 66.8032C16.7253 66.2276 16.774 65.6011 17.0483 65.0615C17.3226 64.5219 17.8 64.1134 18.3755 63.9257L25.4221 61.636C25.995 61.4577 26.615 61.5127 27.1475 61.7892C27.6799 62.0657 28.0817 62.5412 28.2654 63.1123Z" fill="url(#paint7_linear_9233:9108)"/>
<path d="M32.6327 71.6285C32.9873 72.1182 33.1332 72.7285 33.0384 73.3256C32.9436 73.9228 32.6158 74.4578 32.1269 74.8135L26.1396 79.1673C25.6489 79.5223 25.0375 79.6684 24.4392 79.5736C23.841 79.4788 23.3047 79.1509 22.9478 78.6615C22.5931 78.1719 22.4472 77.5615 22.542 76.9644C22.6369 76.3673 22.9647 75.8322 23.4536 75.4765L29.4408 71.1227C29.6832 70.9452 29.9583 70.8174 30.2503 70.7467C30.5423 70.676 30.8454 70.6638 31.1421 70.7108C31.4388 70.7578 31.7233 70.8631 31.9791 71.0207C32.235 71.1782 32.4571 71.3848 32.6327 71.6285Z" fill="url(#paint8_linear_9233:9108)"/>
<path d="M39.3788 78.3881C39.8682 78.745 40.1961 79.2813 40.2909 79.8796C40.3857 80.4778 40.2396 81.0892 39.8846 81.58L35.5308 87.574C35.3541 87.8165 35.1314 88.0219 34.8753 88.1782C34.6192 88.3346 34.3348 88.4389 34.0383 88.4852C33.7419 88.5315 33.4392 88.519 33.1476 88.4483C32.856 88.3775 32.5813 88.25 32.339 88.073C31.8501 87.7173 31.5223 87.1822 31.4275 86.5851C31.3326 85.988 31.4786 85.3776 31.8332 84.888L36.187 78.8939C36.5439 78.4045 37.0802 78.0766 37.6784 77.9818C38.2767 77.887 38.8881 78.0331 39.3788 78.3881Z" fill="url(#paint9_linear_9233:9108)"/>
<path d="M47.9017 82.7351C48.1872 82.8273 48.4518 82.9749 48.6802 83.1695C48.9087 83.3641 49.0965 83.6018 49.233 83.8691C49.3695 84.1363 49.452 84.4279 49.4757 84.7271C49.4994 85.0262 49.4638 85.3271 49.3711 85.6125L47.0815 92.6523C46.9893 92.9379 46.8416 93.2025 46.647 93.4309C46.4524 93.6593 46.2147 93.8472 45.9474 93.9837C45.6802 94.1202 45.3887 94.2026 45.0895 94.2263C44.7904 94.25 44.4895 94.2145 44.204 94.1218C43.9185 94.0296 43.6539 93.8819 43.4255 93.6873C43.197 93.4927 43.0092 93.255 42.8727 92.9877C42.7362 92.7205 42.6538 92.429 42.6301 92.1298C42.6064 91.8307 42.6419 91.5298 42.7346 91.2443L45.0242 84.1977C45.2119 83.6222 45.6205 83.1448 46.1601 82.8706C46.6997 82.5963 47.3261 82.5475 47.9017 82.7351Z" fill="url(#paint10_linear_9233:9108)"/>
<path d="M57.3541 84.2319C57.959 84.2337 58.5386 84.4747 58.9663 84.9025C59.394 85.3302 59.6351 85.9098 59.6369 86.5147V93.9168C59.6369 94.2165 59.5779 94.5134 59.4632 94.7903C59.3485 95.0673 59.1803 95.319 58.9683 95.531C58.7563 95.7429 58.5047 95.9111 58.2277 96.0258C57.9507 96.1405 57.6539 96.1995 57.3541 96.1995C57.0541 96.2004 56.7568 96.142 56.4795 96.0276C56.2021 95.9132 55.9501 95.7451 55.7379 95.533C55.5258 95.3208 55.3576 95.0688 55.2432 94.7914C55.1288 94.514 55.0704 94.2168 55.0713 93.9168V86.5147C55.0713 85.9092 55.3118 85.3286 55.7399 84.9004C56.168 84.4723 56.7487 84.2319 57.3541 84.2319Z" fill="url(#paint11_linear_9233:9108)"/>
<path d="M66.8068 82.7351C67.3823 82.5475 68.0088 82.5963 68.5484 82.8706C69.088 83.1448 69.4966 83.6222 69.6843 84.1977L71.9739 91.2443C72.1614 91.8199 72.1127 92.4464 71.8384 92.986C71.5641 93.5256 71.0867 93.9341 70.5113 94.1218C70.2259 94.2145 69.925 94.25 69.6258 94.2263C69.3267 94.2026 69.0351 94.1202 68.7679 93.9837C68.5006 93.8472 68.2629 93.6593 68.0683 93.4309C67.8737 93.2025 67.7261 92.9379 67.6338 92.6523L65.3442 85.6125C65.1566 85.0369 65.2054 84.4105 65.4797 83.8709C65.754 83.3313 66.2313 82.9228 66.8068 82.7351Z" fill="url(#paint12_linear_9233:9108)"/>
<path d="M75.3297 78.3881C75.8194 78.0335 76.4297 77.8876 77.0268 77.9824C77.6239 78.0772 78.159 78.405 78.5147 78.8939L82.8685 84.888C83.045 85.1301 83.1719 85.4047 83.242 85.6961C83.3121 85.9874 83.324 86.2897 83.277 86.5856C83.23 86.8815 83.1251 87.1652 82.9682 87.4205C82.8113 87.6757 82.6055 87.8975 82.3627 88.0731C82.121 88.2499 81.8467 88.3773 81.5557 88.4479C81.2647 88.5186 80.9625 88.5311 80.6666 88.4847C80.3708 88.4384 80.0869 88.3341 79.8314 88.1778C79.5759 88.0215 79.3538 87.8164 79.1777 87.5741L74.8239 81.5663C74.4697 81.0778 74.3239 80.4685 74.4188 79.8725C74.5136 79.2765 74.8413 78.7426 75.3297 78.3881Z" fill="url(#paint13_linear_9233:9108)"/>
<path d="M82.0961 71.6285C82.271 71.385 82.4925 71.1785 82.7478 71.0211C83.003 70.8637 83.2869 70.7584 83.5831 70.7113C83.8793 70.6643 84.1818 70.6764 84.4733 70.747C84.7647 70.8177 85.0393 70.9453 85.2811 71.1227L91.2752 75.4765C91.7641 75.8322 92.0919 76.3673 92.1867 76.9644C92.2815 77.5615 92.1356 78.1718 91.781 78.6615C91.424 79.1508 90.8877 79.4788 90.2895 79.5736C89.6913 79.6684 89.0799 79.5223 88.5891 79.1673L82.595 74.8135C82.3527 74.6374 82.1476 74.4153 81.9913 74.1598C81.8351 73.9043 81.7308 73.6205 81.6844 73.3246C81.6381 73.0287 81.6506 72.7266 81.7212 72.4355C81.7919 72.1445 81.9192 71.8702 82.0961 71.6285Z" fill="url(#paint14_linear_9233:9108)"/>
<path d="M86.4362 63.1123C86.6239 62.5369 87.0325 62.0595 87.5721 61.7852C88.1117 61.5109 88.7381 61.4622 89.3137 61.6497L96.3535 63.9394C96.6391 64.0316 96.9036 64.1793 97.1321 64.3738C97.3605 64.5684 97.5484 64.8061 97.6848 65.0734C97.8213 65.3406 97.9038 65.6322 97.9275 65.9314C97.9512 66.2305 97.9157 66.5314 97.823 66.8168C97.6353 67.3923 97.2267 67.8696 96.6871 68.1439C96.1475 68.4182 95.5211 68.467 94.9456 68.2794L87.9057 65.9898C87.6201 65.8976 87.3556 65.7499 87.1271 65.5553C86.8987 65.3607 86.7108 65.123 86.5743 64.8558C86.4379 64.5885 86.3554 64.297 86.3317 63.9978C86.308 63.6987 86.3435 63.3978 86.4362 63.1123Z" fill="url(#paint15_linear_9233:9108)"/>
<path d="M87.9331 53.653C87.9331 53.3532 87.9922 53.0564 88.1069 52.7794C88.2216 52.5024 88.3898 52.2508 88.6017 52.0388C88.8137 51.8268 89.0654 51.6587 89.3423 51.5439C89.6193 51.4292 89.9161 51.3702 90.2159 51.3702H97.618C97.9184 51.3693 98.216 51.4276 98.4937 51.542C98.7715 51.6563 99.0239 51.8243 99.2366 52.0364C99.4493 52.2485 99.6181 52.5004 99.7332 52.7778C99.8484 53.0552 99.9077 53.3526 99.9077 53.653C99.9059 54.259 99.6638 54.8397 99.2346 55.2676C98.8054 55.6955 98.2241 55.9358 97.618 55.9358H90.2159C89.611 55.934 89.0314 55.6929 88.6037 55.2652C88.176 54.8375 87.9349 54.2579 87.9331 53.653Z" fill="url(#paint16_linear_9233:9108)"/>
<path d="M86.4362 44.2005C86.3435 43.9151 86.308 43.6142 86.3317 43.315C86.3554 43.0159 86.4379 42.7243 86.5743 42.4571C86.7108 42.1898 86.8987 41.9521 87.1271 41.7575C87.3556 41.5629 87.6201 41.4153 87.9057 41.323L94.9456 39.0334C95.231 38.9407 95.5318 38.9052 95.831 38.9289C96.1301 38.9526 96.4217 39.035 96.6889 39.1715C96.9562 39.308 97.1939 39.4959 97.3885 39.7243C97.5831 39.9527 97.7308 40.2173 97.823 40.5029C97.9157 40.7883 97.9512 41.0892 97.9275 41.3883C97.9038 41.6875 97.8213 41.979 97.6848 42.2463C97.5484 42.5135 97.3605 42.7512 97.1321 42.9458C96.9036 43.1404 96.6391 43.2881 96.3535 43.3803L89.3137 45.67C89.0283 45.7626 88.7274 45.7982 88.4282 45.7745C88.1291 45.7508 87.8375 45.6683 87.5703 45.5318C87.303 45.3953 87.0653 45.2075 86.8707 44.979C86.6761 44.7506 86.5285 44.4861 86.4362 44.2005Z" fill="url(#paint17_linear_9233:9108)"/>
<path d="M82.0961 35.6775C81.9191 35.4352 81.7916 35.1604 81.7209 34.8688C81.6501 34.5772 81.6376 34.2746 81.6839 33.9781C81.7303 33.6817 81.8346 33.3973 81.9909 33.1412C82.1473 32.8851 82.3526 32.6623 82.5951 32.4856L88.5892 28.1319C89.0799 27.7769 89.6913 27.6308 90.2896 27.7256C90.8878 27.8203 91.4241 28.1483 91.781 28.6376C92.1361 29.1284 92.2822 29.7398 92.1874 30.338C92.0926 30.9363 91.7646 31.4725 91.2753 31.8295L85.2606 36.1832C84.7725 36.5315 84.1669 36.6736 83.5747 36.579C82.9826 36.4844 82.4515 36.1605 82.0961 35.6775Z" fill="url(#paint18_linear_9233:9108)"/>
<path d="M75.3299 28.9384C75.0861 28.7628 74.8795 28.5407 74.722 28.2849C74.5645 28.029 74.4592 27.7446 74.4121 27.4478C74.3651 27.1511 74.3773 26.848 74.448 26.556C74.5187 26.264 74.6465 25.9889 74.8241 25.7466L79.1778 19.7593C79.5335 19.2704 80.0687 18.9426 80.6658 18.8477C81.2629 18.7529 81.8732 18.8989 82.3629 19.2535C82.6059 19.4297 82.8118 19.6521 82.9688 19.9079C83.1258 20.1638 83.2308 20.4481 83.2777 20.7445C83.3247 21.041 83.3128 21.3438 83.2426 21.6357C83.1724 21.9275 83.0453 22.2027 82.8686 22.4453L78.5149 28.4326C78.1592 28.9215 77.6241 29.2493 77.027 29.3441C76.4298 29.4389 75.8195 29.293 75.3299 28.9384Z" fill="url(#paint19_linear_9233:9108)"/>
<path d="M66.8066 24.5641C66.5219 24.4719 66.2582 24.3245 66.0305 24.1303C65.8029 23.936 65.6158 23.6988 65.4799 23.4321C65.3441 23.1655 65.2621 22.8747 65.2388 22.5764C65.2155 22.278 65.2512 21.978 65.3439 21.6935L67.6336 14.6469C67.8213 14.0714 68.2299 13.594 68.7695 13.3197C69.3091 13.0455 69.9355 12.9967 70.511 13.1842C71.0865 13.3719 71.5639 13.7805 71.8382 14.3201C72.1124 14.8597 72.1612 15.4861 71.9737 16.0616L69.684 23.1015C69.4963 23.677 69.0877 24.1543 68.5481 24.4286C68.0085 24.7029 67.3821 24.7516 66.8066 24.5641Z" fill="url(#paint20_linear_9233:9108)"/>
</g>
<defs>
<linearGradient id="paint0_linear_9233:9108" x1="7.39844" y1="103.599" x2="107.298" y2="103.599" gradientUnits="userSpaceOnUse">
<stop stop-color="#3DD6C7"/>
<stop offset="0.502131" stop-color="#009EDE"/>
<stop offset="1" stop-color="#004DBD"/>
</linearGradient>
<linearGradient id="paint1_linear_9233:9108" x1="14.8008" y1="96.1996" x2="99.9077" y2="96.1996" gradientUnits="userSpaceOnUse">
<stop stop-color="#3DD6C7"/>
<stop offset="0.502131" stop-color="#009EDE"/>
<stop offset="1" stop-color="#004DBD"/>
</linearGradient>
<linearGradient id="paint2_linear_9233:9108" x1="14.8008" y1="96.1996" x2="99.9077" y2="96.1996" gradientUnits="userSpaceOnUse">
<stop stop-color="#3DD6C7"/>
<stop offset="0.502131" stop-color="#009EDE"/>
<stop offset="1" stop-color="#004DBD"/>
</linearGradient>
<linearGradient id="paint3_linear_9233:9108" x1="14.8008" y1="96.1996" x2="99.9077" y2="96.1996" gradientUnits="userSpaceOnUse">
<stop stop-color="#3DD6C7"/>
<stop offset="0.502131" stop-color="#009EDE"/>
<stop offset="1" stop-color="#004DBD"/>
</linearGradient>
<linearGradient id="paint4_linear_9233:9108" x1="14.8008" y1="96.1996" x2="99.9077" y2="96.1996" gradientUnits="userSpaceOnUse">
<stop stop-color="#3DD6C7"/>
<stop offset="0.502131" stop-color="#009EDE"/>
<stop offset="1" stop-color="#004DBD"/>
</linearGradient>
<linearGradient id="paint5_linear_9233:9108" x1="14.8008" y1="96.1996" x2="99.9077" y2="96.1996" gradientUnits="userSpaceOnUse">
<stop stop-color="#3DD6C7"/>
<stop offset="0.502131" stop-color="#009EDE"/>
<stop offset="1" stop-color="#004DBD"/>
</linearGradient>
<linearGradient id="paint6_linear_9233:9108" x1="14.8008" y1="96.1996" x2="99.9077" y2="96.1996" gradientUnits="userSpaceOnUse">
<stop stop-color="#3DD6C7"/>
<stop offset="0.502131" stop-color="#009EDE"/>
<stop offset="1" stop-color="#004DBD"/>
</linearGradient>
<linearGradient id="paint7_linear_9233:9108" x1="14.8008" y1="96.1996" x2="99.9077" y2="96.1996" gradientUnits="userSpaceOnUse">
<stop stop-color="#3DD6C7"/>
<stop offset="0.502131" stop-color="#009EDE"/>
<stop offset="1" stop-color="#004DBD"/>
</linearGradient>
<linearGradient id="paint8_linear_9233:9108" x1="14.8008" y1="96.1996" x2="99.9077" y2="96.1996" gradientUnits="userSpaceOnUse">
<stop stop-color="#3DD6C7"/>
<stop offset="0.502131" stop-color="#009EDE"/>
<stop offset="1" stop-color="#004DBD"/>
</linearGradient>
<linearGradient id="paint9_linear_9233:9108" x1="14.8008" y1="96.1996" x2="99.9077" y2="96.1996" gradientUnits="userSpaceOnUse">
<stop stop-color="#3DD6C7"/>
<stop offset="0.502131" stop-color="#009EDE"/>
<stop offset="1" stop-color="#004DBD"/>
</linearGradient>
<linearGradient id="paint10_linear_9233:9108" x1="14.8008" y1="96.1996" x2="99.9077" y2="96.1996" gradientUnits="userSpaceOnUse">
<stop stop-color="#3DD6C7"/>
<stop offset="0.502131" stop-color="#009EDE"/>
<stop offset="1" stop-color="#004DBD"/>
</linearGradient>
<linearGradient id="paint11_linear_9233:9108" x1="14.8008" y1="96.1996" x2="99.9077" y2="96.1996" gradientUnits="userSpaceOnUse">
<stop stop-color="#3DD6C7"/>
<stop offset="0.502131" stop-color="#009EDE"/>
<stop offset="1" stop-color="#004DBD"/>
</linearGradient>
<linearGradient id="paint12_linear_9233:9108" x1="14.8008" y1="96.1996" x2="99.9077" y2="96.1996" gradientUnits="userSpaceOnUse">
<stop stop-color="#3DD6C7"/>
<stop offset="0.502131" stop-color="#009EDE"/>
<stop offset="1" stop-color="#004DBD"/>
</linearGradient>
<linearGradient id="paint13_linear_9233:9108" x1="14.8008" y1="96.1996" x2="99.9077" y2="96.1996" gradientUnits="userSpaceOnUse">
<stop stop-color="#3DD6C7"/>
<stop offset="0.502131" stop-color="#009EDE"/>
<stop offset="1" stop-color="#004DBD"/>
</linearGradient>
<linearGradient id="paint14_linear_9233:9108" x1="14.8008" y1="96.1996" x2="99.9077" y2="96.1996" gradientUnits="userSpaceOnUse">
<stop stop-color="#3DD6C7"/>
<stop offset="0.502131" stop-color="#009EDE"/>
<stop offset="1" stop-color="#004DBD"/>
</linearGradient>
<linearGradient id="paint15_linear_9233:9108" x1="14.8008" y1="96.1996" x2="99.9077" y2="96.1996" gradientUnits="userSpaceOnUse">
<stop stop-color="#3DD6C7"/>
<stop offset="0.502131" stop-color="#009EDE"/>
<stop offset="1" stop-color="#004DBD"/>
</linearGradient>
<linearGradient id="paint16_linear_9233:9108" x1="14.8008" y1="96.1996" x2="99.9077" y2="96.1996" gradientUnits="userSpaceOnUse">
<stop stop-color="#3DD6C7"/>
<stop offset="0.502131" stop-color="#009EDE"/>
<stop offset="1" stop-color="#004DBD"/>
</linearGradient>
<linearGradient id="paint17_linear_9233:9108" x1="14.8008" y1="96.1996" x2="99.9077" y2="96.1996" gradientUnits="userSpaceOnUse">
<stop stop-color="#3DD6C7"/>
<stop offset="0.502131" stop-color="#009EDE"/>
<stop offset="1" stop-color="#004DBD"/>
</linearGradient>
<linearGradient id="paint18_linear_9233:9108" x1="14.8008" y1="96.1996" x2="99.9077" y2="96.1996" gradientUnits="userSpaceOnUse">
<stop stop-color="#3DD6C7"/>
<stop offset="0.502131" stop-color="#009EDE"/>
<stop offset="1" stop-color="#004DBD"/>
</linearGradient>
<linearGradient id="paint19_linear_9233:9108" x1="14.8008" y1="96.1996" x2="99.9077" y2="96.1996" gradientUnits="userSpaceOnUse">
<stop stop-color="#3DD6C7"/>
<stop offset="0.502131" stop-color="#009EDE"/>
<stop offset="1" stop-color="#004DBD"/>
</linearGradient>
<linearGradient id="paint20_linear_9233:9108" x1="14.8008" y1="96.1996" x2="99.9077" y2="96.1996" gradientUnits="userSpaceOnUse">
<stop stop-color="#3DD6C7"/>
<stop offset="0.502131" stop-color="#009EDE"/>
<stop offset="1" stop-color="#004DBD"/>
</linearGradient>
<clipPath id="clip0_9233:9108">
<rect width="85.1" height="85.1" fill="white" transform="translate(14.8008 11.0996)"/>
</clipPath>
</defs>
</svg>