<svg xmlns="http://www.w3.org/2000/svg" width="69" height="41" viewBox="0 0 69 41">
    <g fill="none" fill-rule="evenodd">
        <g>
            <g transform="translate(-793 -747) translate(793 747)">
                <rect width="67" height="39" x="1" y="1" stroke="currentColor" stroke-width="2" rx="5"/>
                <g fill="currentColor" fill-rule="nonzero">
                    <path d="M3.08 2.52l-.2.92h.04c.28-.4.64-.64 1-.84.4-.2.84-.28 1.28-.28.4 0 .76.08 1.04.28.32.2.48.44.56.88.12-.16.28-.32.4-.44s.36-.28.52-.36c.2-.12.4-.2.6-.24.24-.04.4-.08.64-.08.28 0 .48.04.72.12.24.08.44.16.64.32s.36.32.44.52c.12.24.16.44.16.72 0 .2-.04.4-.08.6l-.12.6-.8 3.84h-1.8L9 4.92c.04-.16.04-.36.04-.44 0-.2-.08-.36-.24-.48-.16-.16-.36-.2-.56-.2-.24 0-.44.08-.64.16-.2.12-.36.28-.48.4-.16.2-.28.4-.36.56-.08.24-.16.4-.2.6l-.72 3.52H4l.88-4.16c.04-.16.04-.36.04-.44 0-.2-.08-.36-.24-.48-.16-.16-.36-.2-.56-.2-.2 0-.4.08-.56.16-.2.12-.36.28-.48.4-.16.2-.28.4-.36.56-.08.24-.16.4-.2.6L1.8 9H0l1.36-6.52 1.72.04zM13.12 6.32v.28c0 .4.12.68.36.92s.6.36 1.12.36c.2 0 .36-.04.48-.08.16-.04.28-.12.4-.2.12-.08.2-.2.28-.32.08-.12.16-.24.24-.32h1.8c-.16.4-.32.68-.48 1-.2.28-.4.48-.68.68-.28.2-.56.36-.96.4-.36.08-.76.16-1.24.16-.44 0-.84-.08-1.2-.2-.36-.12-.64-.32-.92-.52-.28-.24-.44-.52-.56-.88-.16-.36-.2-.76-.2-1.24 0-.52.08-1.04.28-1.52.16-.48.4-.92.72-1.28.32-.36.68-.68 1.16-.92.44-.24.96-.36 1.52-.36.36 0 .76.08 1.16.2.4.12.68.32.96.52.28.24.44.52.6.92.16.36.24.76.24 1.24 0 .32-.04.64-.12 1.04h-4.84c-.12.04-.12.08-.12.12zm3.16-1.76c-.04-.16-.08-.32-.16-.44-.08-.16-.2-.24-.4-.32-.16-.08-.4-.12-.64-.12-.28 0-.48.04-.68.12-.2.08-.4.2-.48.32-.16.12-.28.28-.4.44-.12.16-.2.36-.28.52h3c.08-.16.08-.36.04-.52zM23.04 8.24c-.2.36-.48.6-.84.76-.36.16-.72.24-1.16.24-.8 0-1.4-.24-1.84-.68-.4-.44-.64-1.12-.64-1.88 0-.52.08-1.08.24-1.6.16-.52.4-1 .64-1.36.32-.4.68-.72 1.12-1 .44-.28 1-.4 1.6-.4.4 0 .76.08 1.12.28.36.16.6.4.76.8h.04L24.8.04h1.8l-1.92 9.04h-1.76l.12-.84zm-1.6-4.28c-.28.2-.44.4-.6.68-.16.28-.28.56-.36.88-.08.32-.12.6-.12.92 0 .2.04.4.08.56.04.2.16.36.24.44.12.12.24.24.4.32.16.08.36.12.56.12.36 0 .64-.08.88-.28s.44-.4.6-.68c.16-.28.32-.56.4-.92.08-.36.12-.6.12-.92 0-.4-.12-.76-.32-1.04-.24-.28-.52-.4-1-.4-.32.04-.64.12-.88.32zM28.76 2.52l-1.4 6.56h-1.8l1.36-6.56h1.84zm-1.6-1.04L27.52 0h1.84L29 1.48h-1.84zM33.36 3.92c-.2-.16-.48-.28-.92-.28-.36 0-.6.08-.88.28-.24.2-.4.4-.56.68-.16.28-.28.56-.32.92-.08.36-.12.6-.12.92 0 .2.04.4.08.52.04.2.12.32.24.44s.24.24.4.32c.16.08.36.12.56.12.2 0 .4-.04.52-.12.16-.08.32-.16.4-.28.08-.12.24-.24.32-.4.08-.16.16-.32.2-.44h1.8c-.28.84-.68 1.44-1.24 1.92-.56.44-1.28.64-2.12.64-.92 0-1.64-.24-2.12-.68-.48-.44-.76-1.16-.76-2.12 0-.56.08-1.08.28-1.56.16-.48.4-.92.72-1.28.32-.4.68-.68 1.16-.88.44-.24 1-.32 1.56-.32.4 0 .76.04 1.16.16.36.08.64.24.92.4.16.2.4.48.56.76.16.28.24.68.24 1.12H33.6c.04-.36-.04-.64-.24-.84zM36.76 3.48c.2-.28.4-.48.72-.64.28-.16.6-.32.96-.36.36-.08.72-.12 1.08-.12.32 0 .6.04.92.08.32.04.6.12.88.24s.48.32.68.52c.2.24.28.52.24.88 0 .32-.04.68-.16 1.12l-.56 2.64c-.04.12-.08.28-.08.4v.44c0 .12.04.24.08.4h-1.8v-.64c-.24.28-.52.48-.92.6-.36.12-.72.2-1.12.2-.36 0-.64-.04-.92-.16-.28-.08-.48-.24-.64-.4-.2-.16-.32-.36-.4-.52-.08-.2-.12-.4-.12-.64 0-.64.24-1.16.64-1.52.4-.4 1.08-.6 1.84-.72.4-.04.8-.08 1.12-.12.32-.04.56-.08.76-.12.2-.04.4-.16.44-.24.12-.12.16-.28.16-.44 0-.16-.04-.32-.12-.4-.08-.12-.16-.2-.32-.24-.12-.08-.24-.12-.4-.12-.12-.04-.28-.04-.4-.04-.32 0-.6.08-.88.24-.28.16-.4.4-.44.72h-1.68c.12-.44.24-.8.44-1.04zm2.68 2.68c-.28.04-.52.04-.8.08-.16 0-.36.04-.48.08-.16.04-.32.08-.4.16-.12.08-.24.2-.32.32-.08.12-.12.32-.12.48 0 .24.12.4.32.52s.4.2.68.2.48-.04.68-.12c.2-.08.36-.2.48-.36.12-.16.24-.32.32-.44.08-.2.16-.36.2-.52l.2-.64c-.24.16-.48.2-.76.24zM45.08 2.52l-.28 1.2.04.04c.2-.44.48-.8.92-1.04.4-.24.84-.36 1.32-.36.2 0 .4 0 .56.04l-.4 1.76c-.12-.04-.28-.04-.4-.08s-.28-.04-.4-.04c-.36 0-.64.08-.88.2-.24.12-.44.28-.6.48-.16.2-.32.4-.4.68-.12.28-.2.52-.24.8l-.6 2.88h-1.8l1.36-6.56h1.8zM48.96 6.32v.28c0 .4.12.68.36.92s.6.36 1.12.36c.2 0 .36-.04.48-.08.16-.04.28-.12.4-.2.12-.08.2-.2.28-.32.08-.12.16-.24.24-.32h1.8c-.16.4-.32.68-.48 1-.2.28-.4.48-.68.68-.28.2-.56.36-.96.4-.36.08-.76.16-1.24.16-.44 0-.84-.08-1.2-.2-.36-.12-.64-.32-.92-.52-.28-.24-.44-.52-.56-.88-.16-.36-.24-.76-.24-1.24 0-.52.08-1.04.28-1.52.16-.48.4-.92.72-1.28.32-.4.68-.68 1.16-.92.44-.24.96-.36 1.52-.36.44 0 .88.08 1.24.2.4.12.68.32.96.52.28.24.44.52.6.92.16.36.24.76.24 1.24 0 .32-.04.64-.12 1.04h-4.84c-.16.04-.16.08-.16.12zm3.2-1.76c-.04-.16-.08-.32-.16-.44-.08-.16-.2-.24-.4-.32-.16-.08-.4-.12-.64-.12-.28 0-.48.04-.68.12-.2.08-.4.2-.48.32-.16.12-.28.28-.36.44-.12.16-.2.36-.28.52h3c.04-.16.04-.36 0-.52z" transform="translate(8 15)"/>
                </g>
            </g>
        </g>
    </g>
</svg>
