<svg xmlns="http://www.w3.org/2000/svg" width="43" height="66" viewBox="0 0 43 66">
    <g fill="none" fill-rule="evenodd">
        <g fill="currentColor">
            <g>
                <path d="M16.322 38.905c.223.736.495 1.422.815 2.043.237.461.494.875.768 1.24-1.641-.681-3.04-1.831-4.03-3.283h2.447zm-3.995-4.468h3.291c.036 1.116.165 2.2.382 3.215h-2.84c-.464-.988-.755-2.073-.833-3.215zm.72-4.217h2.9c-.185.942-.296 1.939-.329 2.964h-3.291c.071-1.047.321-2.045.72-2.964zm4.852-4.785c-.272.363-.527.775-.762 1.233-.356.692-.654 1.466-.89 2.298H13.71c.995-1.568 2.457-2.81 4.19-3.531zm2.847-.637v4.168h-3.188c.701-2.254 1.866-3.856 3.188-4.168zm0 8.386h-3.873c.036-1.042.16-2.04.358-2.964h3.515v2.964zm0 4.468h-3.458c-.23-.992-.376-2.079-.415-3.215h3.873v3.215zm0 5.166c-1.271-.3-2.397-1.794-3.105-3.913h3.105v3.913zm1.253-3.913h2.795c-.65 1.945-1.652 3.363-2.795 3.815v-3.815zm0-4.468h3.563c-.04 1.136-.185 2.223-.415 3.215h-3.148v-3.215zm0-4.217h3.205c.197.923.322 1.922.358 2.964H22V30.22zm0-5.324c1.193.471 2.232 1.994 2.878 4.07H22v-4.07zm7.035 4.07h-2.846c-.236-.832-.534-1.606-.89-2.298-.273-.531-.572-1-.894-1.403 1.925.684 3.552 2.002 4.63 3.701zm1.384 4.218h-3.601c-.033-1.025-.144-2.022-.33-2.964h3.211c.398.92.648 1.917.72 2.964zm-.833 4.468h-3.15c.217-1.016.346-2.099.382-3.215h3.601c-.078 1.142-.37 2.227-.833 3.215zm-5.186 4.706c.323-.405.625-.876.9-1.41.319-.621.591-1.307.814-2.043h2.757c-1.077 1.58-2.64 2.803-4.471 3.453zm-3.027 1.774c2.757 0 5.35-1.074 7.299-3.023 1.949-1.95 3.023-4.542 3.023-7.299 0-2.756-1.074-5.348-3.023-7.298-1.95-1.95-4.542-3.023-7.299-3.023l-.087.001-.068-.001c-.07 0-.14.003-.21.007-2.62.09-5.07 1.153-6.933 3.016-1.95 1.95-3.023 4.542-3.023 7.298 0 2.757 1.074 5.35 3.023 7.299 1.95 1.95 4.541 3.023 7.298 3.023z" transform="translate(-1022 -735) translate(1022 735)"/>
                <g>
                    <path d="M41.084 61.143c0 .689-.56 1.25-1.25 1.25H3.081c-.69 0-1.25-.561-1.25-1.25V9.82c0-.69.56-1.25 1.25-1.25h36.753c.69 0 1.25.56 1.25 1.25v51.323zM35.417 1.857c.182-.043.316.034.379.084s.17.162.17.35v4.448H14.986l20.43-4.882zm4.417 4.882h-2.038V2.29c0-.7-.315-1.352-.866-1.786-.55-.435-1.257-.59-1.939-.428L7.108 6.74H3.081C1.382 6.739 0 8.12 0 9.82v51.323c0 1.699 1.382 3.081 3.081 3.081h36.753c1.7 0 3.081-1.382 3.081-3.081V9.82c0-1.699-1.382-3.081-3.081-3.081z" transform="translate(-1022 -735) translate(1022 735) translate(0 .035)"/>
                </g>
                <path d="M13.383 17.268h16.613c.506 0 .916-.41.916-.916s-.41-.915-.916-.915H13.383c-.506 0-.915.41-.915.915 0 .506.41.916.915.916M32.418 52.977H11.05c-.506 0-.915.41-.915.915 0 .506.41.916.915.916h21.367c.505 0 .915-.41.915-.916 0-.505-.41-.915-.915-.915M32.418 49.17H11.05c-.506 0-.915.41-.915.916 0 .505.41.915.915.915h21.367c.505 0 .915-.41.915-.915 0-.506-.41-.916-.915-.916" transform="translate(-1022 -735) translate(1022 735)"/>
            </g>
        </g>
    </g>
</svg>
