<svg width="30" height="31" viewBox="0 0 30 31" fill="none" xmlns="http://www.w3.org/2000/svg">
<path d="M14.995 20.91V28.38" stroke="currentColor" stroke-miterlimit="10" stroke-linecap="round" stroke-linejoin="round"/>
<path d="M6.54501 20.25C5.01501 18.37 4.10501 15.98 4.10501 13.37C4.10501 7.35998 8.98501 2.47998 14.995 2.47998C21.005 2.47998 25.885 7.35998 25.885 13.37C25.885 16.08 24.895 18.56 23.255 20.47" stroke="currentColor" stroke-miterlimit="10" stroke-linecap="round" stroke-linejoin="round"/>
<path fill-rule="evenodd" clip-rule="evenodd" d="M15.4374 6.53434C15.4368 6.3897 15.3782 6.24853 15.2773 6.13301C15.0654 5.92897 14.6934 5.92897 14.4882 6.13301C14.3794 6.23175 14.3219 6.37738 14.3214 6.53434H14.318V7.64942C13.0981 7.86612 12.3181 8.7154 12.3181 9.90275C12.3181 11.3063 13.1828 11.7335 14.3811 12.3208L15.0361 12.6444C16.2682 13.252 16.4666 13.3974 16.4666 14.0501C16.4666 15.1301 15.3111 15.2135 14.956 15.2135C14.6009 15.2135 13.4454 15.1301 13.4454 14.0501C13.4454 13.739 13.1918 13.4865 12.8818 13.4865C12.5718 13.4865 12.3181 13.739 12.3181 14.0501C12.3181 15.2265 13.1001 16.0708 14.318 16.2867V17.3288C14.3128 17.3578 14.3101 17.3871 14.3101 17.4163C14.3101 17.5629 14.3788 17.7094 14.4668 17.8109C14.5705 17.9225 14.7249 17.98 14.885 17.98C15.0304 17.98 15.1668 17.9225 15.2773 17.821C15.3746 17.7103 15.442 17.5651 15.443 17.4197H15.4453V16.3096C16.7478 16.1381 17.5936 15.2738 17.5906 14.0501C17.5906 12.6455 16.7293 12.2205 15.5321 11.6332L14.8783 11.3096C13.6438 10.6998 13.4454 10.5566 13.4454 9.90275C13.4454 8.80587 14.6021 8.72245 14.956 8.72245C15.3044 8.72245 16.4362 8.80474 16.4362 9.90275C16.4362 10.2116 16.691 10.4664 16.9999 10.4664C17.311 10.4664 17.5635 10.2116 17.5635 9.90275C17.5635 8.66968 16.7313 7.80122 15.4453 7.62721V6.53434H15.4374Z" fill="currentColor"/>
<path d="M10.645 24.05L14.995 28.38L19.355 24.05" stroke="currentColor" stroke-miterlimit="10" stroke-linecap="round" stroke-linejoin="round"/>
</svg>
