<svg width="30" height="30" viewBox="0 0 30 30" fill="none" xmlns="http://www.w3.org/2000/svg">
<path fill-rule="evenodd" clip-rule="evenodd" d="M15.6499 16.48V17.44H14.7299V16.47C12.9699 16.33 11.8799 15.4 11.7999 13.73H12.9799C13.0399 14.7 13.6099 15.27 14.7399 15.4V12.5L14.4699 12.44C12.7199 12.03 12.0399 11.36 12.0399 10.1C12.0399 8.79001 12.9699 7.84001 14.7199 7.75001V6.79001H15.6399V7.77001C17.1199 7.93001 18.0799 8.74001 18.2199 10.28H17.0399C16.9399 9.42001 16.4599 8.98001 15.6299 8.85001V11.54L15.9299 11.61C17.7399 12.03 18.4499 12.71 18.4499 13.99C18.4699 15.5 17.3599 16.36 15.6499 16.48ZM13.2199 10.02C13.2199 10.72 13.5599 11.06 14.7199 11.34V8.82001C13.7499 8.88001 13.2199 9.28001 13.2199 10.02ZM15.6499 15.42V12.71C16.9099 13 17.2899 13.34 17.2899 14.04C17.2899 14.9 16.6999 15.33 15.6499 15.42Z" fill="currentColor"/>
<path d="M26.9299 14.05L24.7099 11.72L22.4899 14.05M7.50995 14.05L5.28995 11.72L3.06995 14.05M24.6099 12.13C24.6699 12.58 24.7099 13.03 24.7099 13.5C24.7099 18.86 20.3599 23.21 14.9999 23.21C9.63995 23.21 5.28995 18.86 5.28995 13.5C5.28995 13.03 5.31995 12.57 5.38995 12.12" stroke="currentColor" stroke-miterlimit="10" stroke-linecap="round" stroke-linejoin="round"/>
</svg>
