<svg width="30" height="30" viewBox="0 0 30 30" fill="none" xmlns="http://www.w3.org/2000/svg">
<path fill-rule="evenodd" clip-rule="evenodd" d="M15.41 19.365V20.325H14.49V19.355C12.73 19.205 11.64 18.285 11.55 16.615H12.73C12.79 17.585 13.36 18.155 14.49 18.285V15.385L14.22 15.325C12.47 14.915 11.79 14.245 11.79 12.985C11.79 11.675 12.72 10.725 14.47 10.635V9.675H15.39V10.655C16.87 10.815 17.83 11.625 17.97 13.165H16.8C16.7 12.305 16.22 11.865 15.39 11.735V14.425L15.69 14.495C17.5 14.915 18.21 15.595 18.21 16.875C18.22 18.385 17.12 19.245 15.41 19.365ZM12.97 12.895C12.97 13.595 13.31 13.935 14.47 14.215V11.695C13.5 11.755 12.97 12.155 12.97 12.895ZM15.41 18.295V15.585C16.67 15.875 17.05 16.215 17.05 16.915C17.05 17.775 16.45 18.215 15.41 18.295Z" fill="currentColor"/>
<path d="M5.59 12.415L2.5 14.995M2.5 14.995L5.59 17.585M2.5 14.995H9.38M24.18 17.585L27.27 14.995M27.27 14.995L24.18 12.405M27.27 14.995H20.39M23.94 19.425C22.3 22.775 18.87 25.095 14.88 25.095C10.89 25.095 7.46 22.785 5.82 19.425M5.78 10.665C7.4 7.265 10.86 4.905 14.88 4.905C18.9 4.905 22.36 7.255 23.98 10.665" stroke="currentColor" stroke-miterlimit="10" stroke-linecap="round" stroke-linejoin="round"/>
</svg>
