<svg width="31" height="31" viewBox="0 0 31 31" fill="none" xmlns="http://www.w3.org/2000/svg">
<path d="M23.655 18.7224H24.405C25.315 18.7224 26.045 19.4524 26.045 20.3624V20.4024C26.045 21.3124 25.315 22.0424 24.405 22.0424H23.205" stroke="currentColor" stroke-miterlimit="10" stroke-linecap="round" stroke-linejoin="round"/>
<path d="M23.665 22.0422C24.575 22.0422 25.305 22.7722 25.305 23.6822V23.7222C25.305 24.6322 24.575 25.3622 23.665 25.3622H15.685C14.365 25.3622 13.075 24.9222 12.025 24.1122" stroke="currentColor" stroke-miterlimit="10" stroke-linecap="round" stroke-linejoin="round"/>
<path d="M23.655 15.4021H24.855C25.765 15.4021 26.495 16.1321 26.495 17.0421V17.0821C26.495 17.9921 25.765 18.7221 24.855 18.7221H24.035" stroke="currentColor" stroke-miterlimit="10" stroke-linecap="round" stroke-linejoin="round"/>
<path d="M11.645 14.9623L14.775 9.94231C14.955 9.66231 15.075 9.35231 15.155 9.02231L15.995 5.25231C16.065 4.94231 16.375 4.75231 16.685 4.82231L16.905 4.87231C18.515 5.23231 19.525 6.84231 19.165 8.45231L18.345 12.0823H24.415C25.325 12.0823 26.055 12.8123 26.055 13.7223V13.7623C26.055 14.6723 25.325 15.4023 24.415 15.4023" stroke="currentColor" stroke-miterlimit="10" stroke-linecap="round" stroke-linejoin="round"/>
<path d="M11.285 26.0522H4.85499C4.66499 26.0522 4.50499 25.8922 4.50499 25.7022V13.8722C4.50499 13.6822 4.66499 13.5222 4.85499 13.5222H11.285C11.475 13.5222 11.635 13.6822 11.635 13.8722V25.7022C11.645 25.8922 11.485 26.0522 11.285 26.0522Z" stroke="currentColor" stroke-miterlimit="10"/>
</svg>
