<svg width="111" height="112" viewBox="0 0 111 112" fill="none" xmlns="http://www.w3.org/2000/svg">
<path fill-rule="evenodd" clip-rule="evenodd" d="M26.25 17.1504C26.25 16.322 26.9216 15.6504 27.75 15.6504H84.36C85.1884 15.6504 85.86 16.322 85.86 17.1504V24.4394C85.86 25.2678 85.1884 25.9394 84.36 25.9394H80.5641C79.6106 35.3104 74.691 44.1512 66.6198 50.6535L66.6159 50.6566L58.4468 57.3189L67.881 65.013L67.8895 65.0199L67.8895 65.0199C75.4612 71.2874 79.6658 78.6126 80.5578 86.8754H84.36C85.1884 86.8754 85.86 87.547 85.86 88.3754V95.6644C85.86 96.4928 85.1884 97.1644 84.36 97.1644H27.75C26.9216 97.1644 26.25 96.4928 26.25 95.6644V88.3754C26.25 87.547 26.9216 86.8754 27.75 86.8754H31.5892C32.4812 78.6126 36.6858 71.2874 44.2575 65.0199L44.2659 65.0129L44.266 65.013L53.7002 57.3189L45.5311 50.6566L45.5275 50.6537C37.4612 44.1554 32.5049 35.2842 31.5786 25.9394H27.75C26.9216 25.9394 26.25 25.2678 26.25 24.4394V17.1504ZM34.6086 86.8754H77.5384C76.6688 79.6307 72.9388 73.0953 65.9809 67.3345L65.9765 67.3309L56.0735 59.2545L46.1705 67.3309L46.1663 67.3343C39.2083 73.0952 35.4782 79.6306 34.6086 86.8754ZM34.5949 25.9394H77.547C76.6057 34.3427 72.1447 42.3514 64.7341 48.3202L64.7341 48.3202L64.727 48.326L56.0735 55.3833L47.42 48.326L47.42 48.3259L47.4129 48.3202C40.0004 42.3499 35.5103 34.3096 34.5949 25.9394ZM29.25 18.6504V22.9394H82.86V18.6504H29.25ZM29.25 94.1644V89.8754H82.86V94.1644H29.25Z" fill="url(#paint0_linear_9448:10025)"/>
<defs>
<linearGradient id="paint0_linear_9448:10025" x1="26.25" y1="97.1644" x2="85.86" y2="97.1644" gradientUnits="userSpaceOnUse">
<stop stop-color="#3DD6C7"/>
<stop offset="0.502131" stop-color="#009EDE"/>
<stop offset="1" stop-color="#004DBD"/>
</linearGradient>
</defs>
</svg>
