<svg width="30" height="31" viewBox="0 0 30 31" fill="none" xmlns="http://www.w3.org/2000/svg">
<path d="M18.2703 12.2337H19.3582C19.4093 12.2337 19.4502 12.2747 19.4502 12.3258V13.84C19.4502 13.8911 19.4093 13.9321 19.3582 13.9321H18.2703C18.2191 13.9321 18.1782 13.8911 18.1782 13.84V12.3258C18.1748 12.2747 18.2191 12.2337 18.2703 12.2337ZM18.2703 15.1666H19.3582C19.4093 15.1666 19.4502 15.2075 19.4502 15.2586V16.7728C19.4502 16.8239 19.4093 16.8649 19.3582 16.8649H18.2703C18.2191 16.8649 18.1782 16.8239 18.1782 16.7728V15.2586C18.1748 15.2075 18.2191 15.1666 18.2703 15.1666ZM18.2703 18.1028H19.3582C19.4093 18.1028 19.4502 18.1437 19.4502 18.1949V19.709C19.4502 19.7602 19.4093 19.8011 19.3582 19.8011H18.2703C18.2191 19.8011 18.1782 19.7602 18.1782 19.709V18.1949C18.1748 18.1437 18.2191 18.1028 18.2703 18.1028ZM18.2703 21.0356H19.3582C19.4093 21.0356 19.4502 21.0765 19.4502 21.1277V22.6418C19.4502 22.693 19.4093 22.7339 19.3582 22.7339H18.2703C18.2191 22.7339 18.1782 22.693 18.1782 22.6418V21.1277C18.1748 21.0765 18.2191 21.0356 18.2703 21.0356ZM21.4555 12.2337H22.5433C22.5945 12.2337 22.6354 12.2747 22.6354 12.3258V13.84C22.6354 13.8911 22.5945 13.9321 22.5433 13.9321H21.4555C21.4043 13.9321 21.3634 13.8911 21.3634 13.84V12.3258C21.36 12.2747 21.4043 12.2337 21.4555 12.2337ZM21.4555 15.1666H22.5433C22.5945 15.1666 22.6354 15.2075 22.6354 15.2586V16.7728C22.6354 16.8239 22.5945 16.8649 22.5433 16.8649H21.4555C21.4043 16.8649 21.3634 16.8239 21.3634 16.7728V15.2586C21.36 15.2075 21.4043 15.1666 21.4555 15.1666ZM21.4555 18.1028H22.5433C22.5945 18.1028 22.6354 18.1437 22.6354 18.1949V19.709C22.6354 19.7602 22.5945 19.8011 22.5433 19.8011H21.4555C21.4043 19.8011 21.3634 19.7602 21.3634 19.709V18.1949C21.36 18.1437 21.4043 18.1028 21.4555 18.1028ZM21.4555 21.0356H22.5433C22.5945 21.0356 22.6354 21.0765 22.6354 21.1277V22.6418C22.6354 22.693 22.5945 22.7339 22.5433 22.7339H21.4555C21.4043 22.7339 21.3634 22.693 21.3634 22.6418V21.1277C21.36 21.0765 21.4043 21.0356 21.4555 21.0356ZM6.64817 5.8634H7.73604C7.78719 5.8634 7.82812 5.90432 7.82812 5.95548V7.46963C7.82812 7.52078 7.78719 7.56171 7.73604 7.56171H6.64817C6.59702 7.56171 6.55609 7.52078 6.55609 7.46963V5.95548C6.55609 5.90432 6.59702 5.8634 6.64817 5.8634ZM6.64817 8.85419H7.73604C7.78719 8.85419 7.82812 8.89511 7.82812 8.94627V10.4604C7.82812 10.5116 7.78719 10.5525 7.73604 10.5525H6.64817C6.59702 10.5525 6.55609 10.5116 6.55609 10.4604V8.94627C6.55609 8.89511 6.59702 8.85419 6.64817 8.85419ZM6.64817 11.8484H7.73604C7.78719 11.8484 7.82812 11.8893 7.82812 11.9405V13.4546C7.82812 13.5058 7.78719 13.5467 7.73604 13.5467H6.64817C6.59702 13.5467 6.55609 13.5058 6.55609 13.4546V11.9405C6.55609 11.8893 6.59702 11.8484 6.64817 11.8484ZM6.64817 14.8392H7.73604C7.78719 14.8392 7.82812 14.8801 7.82812 14.9313V16.4454C7.82812 16.4966 7.78719 16.5375 7.73604 16.5375H6.64817C6.59702 16.5375 6.55609 16.4966 6.55609 16.4454V14.9313C6.55609 14.8801 6.59702 14.8392 6.64817 14.8392ZM6.64817 17.8334H7.73604C7.78719 17.8334 7.82812 17.8743 7.82812 17.9255V19.4396C7.82812 19.4908 7.78719 19.5317 7.73604 19.5317H6.64817C6.59702 19.5317 6.55609 19.4908 6.55609 19.4396V17.9255C6.55609 17.8743 6.59702 17.8334 6.64817 17.8334ZM6.64817 20.8242H7.73604C7.78719 20.8242 7.82812 20.8651 7.82812 20.9162V22.4304C7.82812 22.4815 7.78719 22.5225 7.73604 22.5225H6.64817C6.59702 22.5225 6.55609 22.4815 6.55609 22.4304V20.9162C6.55609 20.8651 6.59702 20.8242 6.64817 20.8242ZM9.83334 5.8634H10.9212C10.9724 5.8634 11.0133 5.90432 11.0133 5.95548V7.46963C11.0133 7.52078 10.9724 7.56171 10.9212 7.56171H9.83334C9.78219 7.56171 9.74126 7.52078 9.74126 7.46963V5.95548C9.74126 5.90432 9.78219 5.8634 9.83334 5.8634ZM9.83334 8.85419H10.9212C10.9724 8.85419 11.0133 8.89511 11.0133 8.94627V10.4604C11.0133 10.5116 10.9724 10.5525 10.9212 10.5525H9.83334C9.78219 10.5525 9.74126 10.5116 9.74126 10.4604V8.94627C9.74126 8.89511 9.78219 8.85419 9.83334 8.85419ZM9.83334 11.8484H10.9212C10.9724 11.8484 11.0133 11.8893 11.0133 11.9405V13.4546C11.0133 13.5058 10.9724 13.5467 10.9212 13.5467H9.83334C9.78219 13.5467 9.74126 13.5058 9.74126 13.4546V11.9405C9.74126 11.8893 9.78219 11.8484 9.83334 11.8484ZM9.83334 14.8392H10.9212C10.9724 14.8392 11.0133 14.8801 11.0133 14.9313V16.4454C11.0133 16.4966 10.9724 16.5375 10.9212 16.5375H9.83334C9.78219 16.5375 9.74126 16.4966 9.74126 16.4454V14.9313C9.74126 14.8801 9.78219 14.8392 9.83334 14.8392ZM9.83334 17.8334H10.9212C10.9724 17.8334 11.0133 17.8743 11.0133 17.9255V19.4396C11.0133 19.4908 10.9724 19.5317 10.9212 19.5317H9.83334C9.78219 19.5317 9.74126 19.4908 9.74126 19.4396V17.9255C9.74126 17.8743 9.78219 17.8334 9.83334 17.8334ZM9.83334 20.8242H10.9212C10.9724 20.8242 11.0133 20.8651 11.0133 20.9162V22.4304C11.0133 22.4815 10.9724 22.5225 10.9212 22.5225H9.83334C9.78219 22.5225 9.74126 22.4815 9.74126 22.4304V20.9162C9.74126 20.8651 9.78219 20.8242 9.83334 20.8242ZM13.0185 5.8634H14.1064C14.1575 5.8634 14.1985 5.90432 14.1985 5.95548V7.46963C14.1985 7.52078 14.1575 7.56171 14.1064 7.56171H13.0185C12.9674 7.56171 12.9264 7.52078 12.9264 7.46963V5.95548C12.9264 5.90432 12.9674 5.8634 13.0185 5.8634ZM13.0185 8.85419H14.1064C14.1575 8.85419 14.1985 8.89511 14.1985 8.94627V10.4604C14.1985 10.5116 14.1575 10.5525 14.1064 10.5525H13.0185C12.9674 10.5525 12.9264 10.5116 12.9264 10.4604V8.94627C12.9264 8.89511 12.9674 8.85419 13.0185 8.85419ZM13.0185 11.8484H14.1064C14.1575 11.8484 14.1985 11.8893 14.1985 11.9405V13.4546C14.1985 13.5058 14.1575 13.5467 14.1064 13.5467H13.0185C12.9674 13.5467 12.9264 13.5058 12.9264 13.4546V11.9405C12.9264 11.8893 12.9674 11.8484 13.0185 11.8484ZM13.0185 14.8392H14.1064C14.1575 14.8392 14.1985 14.8801 14.1985 14.9313V16.4454C14.1985 16.4966 14.1575 16.5375 14.1064 16.5375H13.0185C12.9674 16.5375 12.9264 16.4966 12.9264 16.4454V14.9313C12.9264 14.8801 12.9674 14.8392 13.0185 14.8392ZM13.0185 17.8334H14.1064C14.1575 17.8334 14.1985 17.8743 14.1985 17.9255V19.4396C14.1985 19.4908 14.1575 19.5317 14.1064 19.5317H13.0185C12.9674 19.5317 12.9264 19.4908 12.9264 19.4396V17.9255C12.9264 17.8743 12.9674 17.8334 13.0185 17.8334ZM13.0185 20.8242H14.1064C14.1575 20.8242 14.1985 20.8651 14.1985 20.9162V22.4304C14.1985 22.4815 14.1575 22.5225 14.1064 22.5225H13.0185C12.9674 22.5225 12.9264 22.4815 12.9264 22.4304V20.9162C12.9264 20.8651 12.9674 20.8242 13.0185 20.8242ZM4.00523 4.43451C4.00523 3.75246 4.55769 3.2 5.23974 3.2H15.5114C16.1935 3.2 16.7459 3.75246 16.7459 4.43451V27.29H4.00523V4.43451ZM27.8292 27.29H2H27.8292ZM16.7459 27.29H19.2934H25.4318V10.5354C25.4318 9.85339 24.8794 9.30093 24.1973 9.30093H16.7459V27.29Z" stroke="currentColor" stroke-width="0.75" stroke-linecap="round" stroke-linejoin="round"/>
</svg>
