<svg width="30" height="30" viewBox="0 0 30 30" fill="none" xmlns="http://www.w3.org/2000/svg">
<path d="M4.00006 8.94261V4.67208C4.00006 4.30242 4.30248 4 4.67214 4H9.01412" stroke="currentColor" stroke-linecap="round" stroke-linejoin="round"/>
<path d="M9.26383 26.8945H4.67208C4.30242 26.8945 4 26.5921 4 26.2225V21.7635" stroke="currentColor" stroke-linecap="round" stroke-linejoin="round"/>
<path d="M26.8945 21.7635V26.2225C26.8945 26.5921 26.5921 26.8945 26.2225 26.8945H21.835" stroke="currentColor" stroke-linecap="round" stroke-linejoin="round"/>
<path d="M22.0015 4.00002H26.2224C26.5921 4.00002 26.8945 4.30244 26.8945 4.67204V8.93863" stroke="currentColor" stroke-linecap="round" stroke-linejoin="round"/>
<path d="M20.847 19.0039C20.1417 18.5695 18.4373 17.997 17.2393 17.2911C17.1284 17.179 17.0702 17.0254 17.0341 16.8552C19.0312 16.5366 19.3876 15.5995 19.3876 15.5995C18.3015 14.3936 19.1139 13.9101 19.2317 12.8931C19.396 11.4764 19.1129 10.2699 18.1429 9.28271C17.5257 8.65365 16.5515 8.19794 15.6002 8.22089C14.88 8.23851 14.1253 8.3773 13.9275 9.01756C12.4676 9.42737 11.7873 10.9482 11.8499 12.2544C11.9299 13.9127 12.8712 14.3936 11.7852 15.5995C11.7852 15.5995 12.1563 16.5291 14.1397 16.8513C14.1042 17.0232 14.0452 17.1785 13.9334 17.2911C12.7355 17.997 11.031 18.5695 10.3258 19.0039C9.42637 19.5578 9.07001 20.1063 9.07001 21.3337V21.8801C9.07001 22.5572 9.58914 23.5193 10.6752 23.5193H15.5864H20.4975C21.5836 23.5193 22.1027 22.5572 22.1027 21.8801V21.3337C22.1027 20.1063 21.7463 19.5578 20.847 19.0039" stroke="currentColor"/>
</svg>
