<svg width="30" height="31" viewBox="0 0 30 31" fill="none" xmlns="http://www.w3.org/2000/svg">
<path fill-rule="evenodd" clip-rule="evenodd" d="M16 9.17999C16 9.59421 16.2612 9.92999 16.5833 9.92999H29.4167C29.7388 9.92999 30 9.59421 30 9.17999C30 8.76578 29.7388 8.42999 29.4167 8.42999H16.5833C16.2612 8.42999 16 8.76578 16 9.17999ZM12 15.18C12 15.5942 12.3358 15.93 12.75 15.93H29.25C29.6642 15.93 30 15.5942 30 15.18C30 14.7658 29.6642 14.43 29.25 14.43H12.75C12.3358 14.43 12 14.7658 12 15.18ZM20.75 21.93C21.1642 21.93 21.5 21.5942 21.5 21.18C21.5 20.7658 21.1642 20.43 20.75 20.43C20.3358 20.43 20 20.7658 20 21.18C20 21.5942 20.3358 21.93 20.75 21.93ZM23 21.18C23 20.7658 23.3358 20.43 23.75 20.43H29.25C29.6642 20.43 30 20.7658 30 21.18C30 21.5942 29.6642 21.93 29.25 21.93H23.75C23.3358 21.93 23 21.5942 23 21.18Z" fill="#323232"/>
</svg>
