<svg width="31" height="30" viewBox="0 0 31 30" fill="none" xmlns="http://www.w3.org/2000/svg">
<path d="M9.59973 7.25H7.57585C7.1683 7.25 6.93195 7.71141 7.17008 8.04215L11.0997 13.5M9.59973 7.25H23.6236C24.0312 7.25 24.2675 7.71141 24.0294 8.04215L20.0997 13.5M9.59973 7.25L6.74939 3.9246C6.6544 3.81378 6.51573 3.75 6.36976 3.75H3.59973M11.0997 13.5L15.194 19.1864C15.3935 19.4636 15.806 19.4636 16.0055 19.1864L20.0997 13.5M11.0997 13.5H20.0997" stroke="currentColor" stroke-linecap="round" stroke-linejoin="round"/>
<path d="M15.5997 19.25V23.75M15.5997 23.75L19.5997 26.25H15.5997H11.5997L15.5997 23.75Z" stroke="currentColor" stroke-linejoin="round"/>
<path d="M21.5997 7.25C21.5997 5.59315 22.9429 4.25 24.5997 4.25C26.2566 4.25 27.5997 5.59315 27.5997 7.25C27.5997 8.90685 26.2566 10.25 24.5997 10.25C23.9221 10.25 23.2969 10.0253 22.7947 9.6464" stroke="currentColor"/>
</svg>
