<svg width="30" height="31" viewBox="0 0 30 31" fill="none" xmlns="http://www.w3.org/2000/svg">
<path d="M18.6672 16.0354H26.6648V23.5351H18.6672M18.6672 16.0354V23.5351M18.6672 16.0354H28.7364L22.9641 12.1872H18.6672V16.0354ZM18.6672 23.5351V9.51933H20.9601L13.147 5.22241L5.33996 9.51933H7.50379V23.5351H1.69464V25.2501H27.3348V23.5351H18.6672ZM21.0831 17.7198V21.2053M22.8473 17.7198V21.2053M24.6116 17.7198V21.2053M7.50379 16.8469H2.30322V20.3323M7.50379 16.8469V20.3323M7.50379 16.8469V13.7056L1 16.8469H7.50379ZM2.30322 20.3323H7.50379M2.30322 20.3323H4.03674M2.30322 20.3323V23.5289H4.03674M7.50379 20.3323H5.77026M7.50379 20.3323V23.5289H5.77026M4.03674 20.3323V23.5289M4.03674 20.3323H5.77026M4.03674 23.5289H5.77026M5.77026 20.3323V23.5289M11.1184 20.0496H15.1817M11.1184 22.4224H15.1817M13.147 17.7259V25.2563M13.147 13.7118V8.46201M11.1184 11.634H15.1817M15.1756 17.7259H11.1184V25.2563H15.1756V17.7259ZM10.4852 6.68545L8.68406 7.67516V4.245H10.4852V6.68545ZM13.147 8.43742C14.2658 8.43742 15.1756 9.34721 15.1756 10.466V13.7118H11.1184V10.466C11.1184 9.34721 12.0282 8.43742 13.147 8.43742Z" stroke="currentColor" stroke-miterlimit="10" stroke-linecap="round" stroke-linejoin="round"/>
</svg>
