<svg width="31" height="31" viewBox="0 0 31 31" fill="none" xmlns="http://www.w3.org/2000/svg">
<path d="M15.2 27.1845C15.9014 27.1845 16.47 26.6159 16.47 25.9145C16.47 25.2131 15.9014 24.6445 15.2 24.6445C14.4986 24.6445 13.93 25.2131 13.93 25.9145C13.93 26.6159 14.4986 27.1845 15.2 27.1845Z" fill="currentColor"/>
<path d="M22.07 23.6145H8.33002M13.2 4.08455H17.2H13.2ZM9.83002 2.08455H20.57C21.4 2.08455 22.07 2.75455 22.07 3.58455V27.0745C22.07 27.9045 21.4 28.5745 20.57 28.5745H9.83002C9.00002 28.5745 8.33002 27.9045 8.33002 27.0745V3.58455C8.33002 2.75455 9.00002 2.08455 9.83002 2.08455ZM22.07 5.97455H8.33002H22.07Z" stroke="currentColor" stroke-linecap="round" stroke-linejoin="round"/>
</svg>
