<svg width="30" height="31" viewBox="0 0 30 31" fill="none" xmlns="http://www.w3.org/2000/svg">
<g clip-path="url(#clip0)">
<path fill-rule="evenodd" clip-rule="evenodd" d="M12.6706 8.41325C11.9319 8.41325 11.3206 9.01187 11.3206 9.76332C11.3206 10.502 11.9192 11.1134 12.6706 11.1134H17.1539C17.8926 11.1134 18.504 10.5148 18.504 9.76332C18.504 9.0246 17.9053 8.41325 17.1539 8.41325H12.6706ZM19.5738 3.92999H10.2634L12.5051 8.41325H17.3322L19.5738 3.92999Z" stroke="currentColor" stroke-miterlimit="10" stroke-linecap="round" stroke-linejoin="round"/>
<path fill-rule="evenodd" clip-rule="evenodd" d="M18.504 29.9507C21.7263 29.9507 24.3373 27.3397 24.3373 24.1174V23.2258C24.3373 19.8125 22.0448 15.7622 17.4214 11.1134H12.4159C7.79258 15.8132 5.5 19.8634 5.5 23.2131V24.1047C5.5 27.327 8.11099 29.938 11.3333 29.938H18.504V29.9507Z" stroke="currentColor" stroke-miterlimit="10"/>
<path fill-rule="evenodd" clip-rule="evenodd" d="M15.3511 16.1963C15.3505 16.0581 15.2946 15.9233 15.1982 15.8129C14.9957 15.618 14.6404 15.618 14.4444 15.8129C14.3404 15.9072 14.2855 16.0464 14.285 16.1963H14.2818V17.2614C13.1165 17.4684 12.3714 18.2797 12.3714 19.4139C12.3714 20.7546 13.1973 21.1627 14.342 21.7238L14.9677 22.0328C16.1447 22.6133 16.3342 22.7522 16.3342 23.3757C16.3342 24.4073 15.2305 24.487 14.8912 24.487C14.552 24.487 13.4483 24.4073 13.4483 23.3757C13.4483 23.0785 13.206 22.8372 12.9098 22.8372C12.6137 22.8372 12.3714 23.0785 12.3714 23.3757C12.3714 24.4994 13.1184 25.3059 14.2818 25.5121V26.5076C14.2768 26.5353 14.2742 26.5633 14.2742 26.5912C14.2742 26.7312 14.3399 26.8712 14.4239 26.9681C14.523 27.0747 14.6705 27.1296 14.8234 27.1296C14.9623 27.1296 15.0926 27.0747 15.1982 26.9778C15.2911 26.872 15.3555 26.7333 15.3565 26.5944H15.3586V25.534C16.6028 25.3701 17.4107 24.5445 17.4079 23.3757C17.4079 22.0339 16.5851 21.6279 15.4415 21.0669L14.8169 20.7578C13.6378 20.1753 13.4483 20.0385 13.4483 19.4139C13.4483 18.3661 14.5531 18.2864 14.8912 18.2864C15.224 18.2864 16.3052 18.3651 16.3052 19.4139C16.3052 19.709 16.5485 19.9523 16.8436 19.9523C17.1408 19.9523 17.382 19.709 17.382 19.4139C17.382 18.236 16.587 17.4065 15.3586 17.2402V16.1963H15.3511Z" fill="currentColor"/>
</g>
<defs>
<clipPath id="clip0">
<rect width="30" height="30" fill="white" transform="translate(0 0.429993)"/>
</clipPath>
</defs>
</svg>
