<svg width="30" height="31" viewBox="0 0 30 31" fill="none" xmlns="http://www.w3.org/2000/svg">
<path fill-rule="evenodd" clip-rule="evenodd" d="M15 26.78C15.24 26.75 15.34 26.73 15.68 26.52C20.64 23.53 23.68 18.16 23.71 12.34V7.68999L15.7658 4.39737C15.2755 4.19416 14.7245 4.19416 14.2342 4.39737L6.28999 7.68999V12.35C6.31999 18.16 9.35999 23.54 14.32 26.53C14.66 26.73 14.75 26.74 15 26.78Z" stroke="currentColor" stroke-miterlimit="10" stroke-linecap="round" stroke-linejoin="round"/>
<path d="M14.97 15.2801C16.9361 15.2801 18.53 13.6862 18.53 11.7201C18.53 9.75393 16.9361 8.16006 14.97 8.16006C13.0039 8.16006 11.41 9.75393 11.41 11.7201C11.41 13.6862 13.0039 15.2801 14.97 15.2801Z" stroke="currentColor" stroke-miterlimit="10" stroke-linecap="round" stroke-linejoin="round"/>
<path d="M8.65999 20.81C9.98999 18.73 12.31 17.35 14.97 17.35C17.66 17.35 20.02 18.77 21.34 20.91" stroke="currentColor" stroke-miterlimit="10" stroke-linecap="round" stroke-linejoin="round"/>
</svg>
