<svg width="30" height="30" viewBox="0 0 30 30" fill="none" xmlns="http://www.w3.org/2000/svg">
<path fill-rule="evenodd" clip-rule="evenodd" d="M26 16.6582L22.8415 13.3123V6.99228H19.3442V9.60418L15.0046 5L4 16.6582H7.10362V26H22.9513V16.6582H26Z" stroke="currentColor" stroke-linecap="round" stroke-linejoin="round"/>
<path fill-rule="evenodd" clip-rule="evenodd" d="M15.3584 13.4346C15.3579 13.3243 15.3145 13.2167 15.2396 13.1286C15.0824 12.973 14.8064 12.973 14.6542 13.1286C14.5735 13.2039 14.5309 13.3149 14.5305 13.4346H14.528V14.2849C13.6231 14.4502 13.0444 15.0978 13.0444 16.0032C13.0444 17.0735 13.6858 17.3993 14.5748 17.8472L15.0606 18.0939C15.9746 18.5572 16.1218 18.6681 16.1218 19.1658C16.1218 19.9894 15.2647 20.053 15.0013 20.053C14.7378 20.053 13.8807 19.9894 13.8807 19.1658C13.8807 18.9286 13.6925 18.736 13.4626 18.736C13.2326 18.736 13.0444 18.9286 13.0444 19.1658C13.0444 20.0629 13.6246 20.7067 14.528 20.8713V21.6658C14.5241 21.688 14.5221 21.7104 14.5221 21.7327C14.5221 21.8445 14.5731 21.9562 14.6383 22.0336C14.7153 22.1187 14.8298 22.1626 14.9486 22.1626C15.0565 22.1626 15.1576 22.1187 15.2396 22.0413C15.3118 21.9569 15.3618 21.8462 15.3625 21.7353H15.3642V20.8888C16.3304 20.758 16.9578 20.0989 16.9556 19.1658C16.9556 18.0947 16.3167 17.7706 15.4286 17.3228L14.9436 17.0761C14.0279 16.611 13.8807 16.5018 13.8807 16.0032C13.8807 15.1668 14.7387 15.1032 15.0013 15.1032C15.2597 15.1032 16.0992 15.1659 16.0992 16.0032C16.0992 16.2388 16.2882 16.4331 16.5174 16.4331C16.7482 16.4331 16.9355 16.2388 16.9355 16.0032C16.9355 15.063 16.3181 14.4007 15.3642 14.268V13.4346H15.3584Z" fill="#323232"/>
</svg>
