<svg width="30" height="31" viewBox="0 0 30 31" fill="none" xmlns="http://www.w3.org/2000/svg">
<path d="M10.64 26.94C11.03 25.86 12.84 25.05 15.02 25.05C17.17 25.05 18.97 25.85 19.39 26.91" stroke="currentColor" stroke-miterlimit="10" stroke-linecap="round" stroke-linejoin="round"/>
<path d="M22.49 29.0199H7.53V27.6799C7.53 27.2699 7.86 26.9499 8.26 26.9499H21.75C22.16 26.9499 22.48 27.2799 22.48 27.6799V29.0199H22.49Z" stroke="currentColor" stroke-miterlimit="10" stroke-linecap="round" stroke-linejoin="round"/>
<path d="M15.97 25.0901L14.98 1.84006L13.98 25.0901" stroke="currentColor" stroke-miterlimit="10" stroke-linecap="round" stroke-linejoin="round"/>
<path d="M26.98 3.32004L3.01999 10.51" stroke="currentColor" stroke-miterlimit="10" stroke-linecap="round" stroke-linejoin="round"/>
<path d="M21.28 15.0403C21.58 16.8303 23.12 18.2003 25 18.2003C26.88 18.2003 28.42 16.8303 28.72 15.0403H21.28Z" stroke="currentColor" stroke-miterlimit="10" stroke-linecap="round" stroke-linejoin="round"/>
<path d="M25 3.92014L28.72 15.0501H21.28L25 3.92014Z" stroke="currentColor" stroke-miterlimit="10" stroke-linecap="round" stroke-linejoin="round"/>
<path d="M1.28 21.0803C1.58 22.8703 3.12 24.2403 5 24.2403C6.88 24.2403 8.42 22.8703 8.72 21.0803H1.28Z" stroke="currentColor" stroke-miterlimit="10" stroke-linecap="round" stroke-linejoin="round"/>
<path d="M5 9.96017L8.72 21.0902H1.28L5 9.96017Z" stroke="currentColor" stroke-miterlimit="10" stroke-linecap="round" stroke-linejoin="round"/>
</svg>
