<svg width="30" height="31" viewBox="0 0 30 31" fill="none" xmlns="http://www.w3.org/2000/svg">
<path d="M19.3631 3.08954V5.19319M19.3631 3.08954H19.4503H20.8958M19.3631 3.08954H17.8004" stroke="#323232" stroke-linecap="round"/>
<path d="M27.2429 7.01477L25.9794 8.2467M27.2429 7.01477L27.3046 7.07639L28.3267 8.09852M27.2429 7.01477L26.1379 5.90976" stroke="#323232" stroke-linecap="round"/>
<path d="M1 15.3678C0.723858 15.3678 0.5 15.5917 0.5 15.8678C0.5 16.1439 0.723858 16.3678 1 16.3678V15.3678ZM11.338 16.3678C11.6141 16.3678 11.838 16.1439 11.838 15.8678C11.838 15.5917 11.6141 15.3678 11.338 15.3678V16.3678ZM5.56794 21.3302C5.2918 21.3302 5.06794 21.554 5.06794 21.8302C5.06794 22.1063 5.2918 22.3302 5.56794 22.3302V21.3302ZM11.2658 22.3302C11.542 22.3302 11.7658 22.1063 11.7658 21.8302C11.7658 21.554 11.542 21.3302 11.2658 21.3302V22.3302ZM3.11568 18.2769C2.83953 18.2769 2.61568 18.5007 2.61568 18.7769C2.61568 19.053 2.83953 19.2769 3.11568 19.2769V18.2769ZM11.338 19.2769C11.6141 19.2769 11.838 19.053 11.838 18.7769C11.838 18.5007 11.6141 18.2769 11.338 18.2769V19.2769ZM3.11568 12.3145C2.83953 12.3145 2.61568 12.5384 2.61568 12.8145C2.61568 13.0906 2.83953 13.3145 3.11568 13.3145V12.3145ZM11.338 13.3145C11.6141 13.3145 11.838 13.0906 11.838 12.8145C11.838 12.5384 11.6141 12.3145 11.338 12.3145V13.3145ZM5.64006 9.35736C5.36392 9.35736 5.14006 9.58122 5.14006 9.85736C5.14006 10.1335 5.36392 10.3574 5.64006 10.3574V9.35736ZM11.338 10.3574C11.6141 10.3574 11.838 10.1335 11.838 9.85736C11.838 9.58122 11.6141 9.35736 11.338 9.35736V10.3574ZM1 16.3678H11.338V15.3678H1V16.3678ZM5.56794 22.3302H11.2658V21.3302H5.56794V22.3302ZM3.11568 19.2769H11.338V18.2769H3.11568V19.2769ZM3.11568 13.3145H11.338V12.3145H3.11568V13.3145ZM5.64006 10.3574H11.338V9.35736H5.64006V10.3574Z" fill="#323232"/>
<path d="M19.9497 15.7956C19.9497 16.7012 19.2156 17.4353 18.31 17.4353C17.4044 17.4353 16.6703 16.7012 16.6703 15.7956C16.6703 14.89 17.4044 14.1559 18.31 14.1559C19.2156 14.1559 19.9497 14.89 19.9497 15.7956Z" stroke="#323232"/>
<path d="M23.4984 11.4107C23.6923 11.2141 23.6901 10.8975 23.4936 10.7036C23.297 10.5097 22.9804 10.5118 22.7865 10.7084L23.4984 11.4107ZM19.2764 14.2666C19.0824 14.4632 19.0846 14.7798 19.2812 14.9737C19.4778 15.1676 19.7943 15.1655 19.9883 14.9689L19.2764 14.2666ZM22.7865 10.7084L19.2764 14.2666L19.9883 14.9689L23.4984 11.4107L22.7865 10.7084Z" fill="#323232"/>
<path d="M9.63971 10.0036C11.535 7.14355 14.7825 5.2576 18.4706 5.2576C24.3172 5.2576 29.0568 9.9972 29.0568 15.8438C29.0568 21.6904 24.3172 26.43 18.4706 26.43C14.7825 26.43 11.535 24.544 9.63971 21.6839" stroke="#323232"/>
</svg>
