<svg width="30" height="30" viewBox="0 0 30 30" fill="none" xmlns="http://www.w3.org/2000/svg">
<path d="M7.6273 7.08511C9.65066 5.05734 12.4499 3.80542 15.5444 3.80542C21.7247 3.80542 26.7368 8.81752 26.7368 14.9978C26.7368 21.1781 21.7247 26.1946 15.5444 26.1946C11.2641 26.1946 7.54796 23.7921 5.66125 20.2656M7.27906 4.46224V7.53033H10.2458M11.9605 17.8587L15.5444 15.0022V8.7514" stroke="currentColor" stroke-miterlimit="10" stroke-linecap="round" stroke-linejoin="round"/>
<path d="M5.4144 10.9334C5.8015 10.9334 6.1153 10.6196 6.1153 10.2325C6.1153 9.84545 5.8015 9.53165 5.4144 9.53165C5.02731 9.53165 4.7135 9.84545 4.7135 10.2325C4.7135 10.6196 5.02731 10.9334 5.4144 10.9334Z" fill="currentColor"/>
<path d="M4.40049 14.5834C4.78758 14.5834 5.10139 14.2696 5.10139 13.8825C5.10139 13.4954 4.78758 13.1816 4.40049 13.1816C4.01339 13.1816 3.69958 13.4954 3.69958 13.8825C3.69958 14.2696 4.01339 14.5834 4.40049 14.5834Z" fill="currentColor"/>
<path d="M4.62088 18.2378C5.00798 18.2378 5.32179 17.924 5.32179 17.5369C5.32179 17.1498 5.00798 16.836 4.62088 16.836C4.23379 16.836 3.91998 17.1498 3.91998 17.5369C3.91998 17.924 4.23379 18.2378 4.62088 18.2378Z" fill="currentColor"/>
</svg>
