<svg width="30" height="31" viewBox="0 0 30 31" fill="none" xmlns="http://www.w3.org/2000/svg">
<path fill-rule="evenodd" clip-rule="evenodd" d="M14.835 3.7049C12.8822 3.7049 11.0334 4.18541 9.4046 5.03115C9.15953 5.1584 9.06401 5.46023 9.19126 5.7053C9.31851 5.95038 9.62034 6.04589 9.86542 5.91864C11.3566 5.14438 13.0478 4.7049 14.835 4.7049C20.7586 4.7049 25.555 9.51075 25.555 15.4249C25.555 18.0112 24.6403 20.386 23.1161 22.2378L22.9836 20.4676C22.963 20.1923 22.723 19.9857 22.4477 20.0063C22.1723 20.0269 21.9658 20.2669 21.9864 20.5423L22.2064 23.4823C22.217 23.6243 22.2877 23.755 22.4007 23.8417C22.5137 23.9283 22.6582 23.9627 22.7982 23.9362L25.6982 23.3862C25.9695 23.3347 26.1477 23.0731 26.0962 22.8018C26.0448 22.5305 25.7831 22.3522 25.5118 22.4037L24.0419 22.6825C25.6159 20.6868 26.555 18.1634 26.555 15.4249C26.555 8.95904 21.3114 3.7049 14.835 3.7049ZM7.16868 7.01762C7.28205 7.10428 7.35298 7.23525 7.36363 7.37755L7.58363 10.3175C7.60424 10.5929 7.39771 10.8329 7.12234 10.8535C6.84697 10.8741 6.60703 10.6675 6.58642 10.3922L6.46324 8.74608C4.99947 10.5793 4.125 12.9059 4.125 15.4348C4.125 21.3489 8.92143 26.1548 14.845 26.1548C16.6322 26.1548 18.3234 25.7153 19.8146 24.941C20.0597 24.8138 20.3615 24.9093 20.4887 25.1544C20.616 25.3994 20.5205 25.7013 20.2754 25.8285C18.6466 26.6742 16.7978 27.1548 14.845 27.1548C8.36857 27.1548 3.125 21.9006 3.125 15.4348C3.125 12.6875 4.07014 10.1568 5.65318 8.1581L4.05983 8.46579C3.78869 8.51814 3.52645 8.34079 3.4741 8.06966C3.42174 7.79852 3.59909 7.53628 3.87023 7.48393L6.77023 6.92393C6.91033 6.89687 7.05532 6.93097 7.16868 7.01762ZM14.318 19.7367C13.1001 19.5208 12.3181 18.6765 12.3181 17.5001C12.3181 17.189 12.5718 16.9365 12.8818 16.9365C13.1918 16.9365 13.4454 17.189 13.4454 17.5001C13.4454 18.5801 14.6009 18.6635 14.956 18.6635C15.3111 18.6635 16.4666 18.5801 16.4666 17.5001C16.4666 16.8474 16.2682 16.702 15.0361 16.0944L14.3811 15.7708C13.1828 15.1835 12.3181 14.7563 12.3181 13.3528C12.3181 12.1654 13.0981 11.3161 14.318 11.0994V9.98434H14.3214C14.3219 9.82738 14.3794 9.68176 14.4882 9.58303C14.6934 9.37898 15.0654 9.37898 15.2773 9.58303C15.3782 9.69854 15.4368 9.83971 15.4374 9.98434H15.4453V11.0772C16.7313 11.2512 17.5635 12.1197 17.5635 13.3528C17.5635 13.6616 17.311 13.9164 16.9999 13.9164C16.691 13.9164 16.4362 13.6616 16.4362 13.3528C16.4362 12.2547 15.3044 12.1725 14.956 12.1725C14.6021 12.1725 13.4454 12.2559 13.4454 13.3528C13.4454 14.0066 13.6438 14.1498 14.8783 14.7596L15.5321 15.0832C16.7293 15.6705 17.5906 16.0955 17.5906 17.5001C17.5936 18.7238 16.7478 19.5881 15.4453 19.7596V20.8697H15.443C15.442 21.0151 15.3746 21.1603 15.2773 21.271C15.1668 21.3725 15.0304 21.43 14.885 21.43C14.7249 21.43 14.5705 21.3725 14.4668 21.2609C14.3789 21.1594 14.3101 21.0129 14.3101 20.8663C14.3101 20.8371 14.3128 20.8079 14.318 20.7789V19.7367Z" fill="currentColor"/>
</svg>
