<svg width="30" height="31" viewBox="0 0 30 31" fill="none" xmlns="http://www.w3.org/2000/svg">
<path d="M6.605 7.81476C4.755 9.81476 3.625 12.4948 3.625 15.4348C3.625 21.6248 8.645 26.6548 14.845 26.6548C16.715 26.6548 18.485 26.1948 20.045 25.3848" stroke="currentColor" stroke-miterlimit="10" stroke-linecap="round" stroke-linejoin="round"/>
<path d="M3.96503 7.97486L6.86503 7.41486L7.08503 10.3549" stroke="currentColor" stroke-miterlimit="10" stroke-linecap="round" stroke-linejoin="round"/>
<path d="M6.605 7.81476C4.755 9.81476 3.625 12.4948 3.625 15.4348C3.625 21.6248 8.645 26.6548 14.845 26.6548C16.715 26.6548 18.485 26.1948 20.045 25.3848" stroke="currentColor" stroke-miterlimit="10" stroke-linecap="round" stroke-linejoin="round"/>
<path d="M3.96503 7.97486L6.86503 7.41486L7.08503 10.3549" stroke="currentColor" stroke-miterlimit="10" stroke-linecap="round" stroke-linejoin="round"/>
<path d="M23.075 23.0449C24.925 21.0449 26.055 18.3649 26.055 15.4249C26.055 9.2349 21.035 4.2049 14.835 4.2049C12.965 4.2049 11.195 4.66489 9.63501 5.4749" stroke="currentColor" stroke-miterlimit="10" stroke-linecap="round" stroke-linejoin="round"/>
<path d="M25.605 22.8949L22.705 23.4449L22.485 20.5049" stroke="currentColor" stroke-miterlimit="10" stroke-linecap="round" stroke-linejoin="round"/>
<path fill-rule="evenodd" clip-rule="evenodd" d="M14.956 19.7909C13.38 19.7909 12.3181 18.871 12.3181 17.5001C12.3181 17.189 12.5718 16.9365 12.8818 16.9365C13.1918 16.9365 13.4454 17.189 13.4454 17.5001C13.4454 18.5801 14.6009 18.6635 14.956 18.6635C15.3111 18.6635 16.4666 18.5801 16.4666 17.5001C16.4666 16.8474 16.2682 16.702 15.0361 16.0944L14.3811 15.7708C13.1828 15.1835 12.3181 14.7563 12.3181 13.3528C12.3181 11.9695 13.3767 11.0451 14.956 11.0451C16.5162 11.0451 17.5635 11.9695 17.5635 13.3528C17.5635 13.6616 17.311 13.9164 16.9999 13.9164C16.691 13.9164 16.4362 13.6616 16.4362 13.3528C16.4362 12.2547 15.3044 12.1725 14.956 12.1725C14.6021 12.1725 13.4454 12.2559 13.4454 13.3528C13.4454 14.0066 13.6438 14.1498 14.8783 14.7596L15.5321 15.0832C16.7293 15.6705 17.5906 16.0955 17.5906 17.5001C17.594 18.871 16.532 19.7909 14.956 19.7909V19.7909Z" fill="currentColor"/>
<path fill-rule="evenodd" clip-rule="evenodd" d="M14.885 10.5503C14.7249 10.5503 14.5919 10.495 14.4803 10.3834C14.3788 10.282 14.3214 10.1343 14.3214 9.98661C14.3214 9.82878 14.3788 9.68223 14.4882 9.58303C14.6934 9.37898 15.0654 9.37898 15.2773 9.58303C15.3788 9.69914 15.4374 9.84118 15.4374 9.98661C15.4374 10.1343 15.3788 10.2684 15.2773 10.3834C15.1792 10.4838 15.0304 10.5503 14.885 10.5503V10.5503Z" fill="currentColor"/>
<path fill-rule="evenodd" clip-rule="evenodd" d="M14.318 9.98434H15.4453V11.283H14.318V9.98434Z" fill="currentColor"/>
<path fill-rule="evenodd" clip-rule="evenodd" d="M14.885 21.43C14.7249 21.43 14.5705 21.3725 14.4668 21.2609C14.3789 21.1594 14.3101 21.0129 14.3101 20.8663C14.3101 20.7198 14.3789 20.571 14.4769 20.4695C14.6573 20.2655 15.0643 20.2576 15.2773 20.4695C15.3788 20.571 15.443 20.7198 15.443 20.8663C15.443 21.0129 15.3754 21.1594 15.2773 21.271C15.1668 21.3725 15.0304 21.43 14.885 21.43Z" fill="currentColor"/>
<path fill-rule="evenodd" clip-rule="evenodd" d="M14.318 19.1754H15.4453V20.8697H14.318V19.1754Z" fill="currentColor"/>
</svg>
