<svg width="31" height="31" viewBox="0 0 31 31" fill="none" xmlns="http://www.w3.org/2000/svg">
<path d="M24.545 23.49H6.455C5.455 23.49 4.655 22.68 4.655 21.69V9.17C4.655 8.17 5.465 7.37 6.455 7.37H24.545C25.545 7.37 26.345 8.18 26.345 9.17V21.68C26.345 22.68 25.535 23.49 24.545 23.49Z" stroke="currentColor" stroke-linecap="round" stroke-linejoin="round"/>
<path d="M8.20499 13.8C9.83499 12.04 12.495 10.9 15.505 10.9C18.505 10.9 21.165 12.04 22.795 13.8" stroke="currentColor" stroke-linecap="round" stroke-linejoin="round"/>
<path d="M10.935 15.45C11.955 14.35 13.615 13.64 15.495 13.64C17.375 13.64 19.035 14.35 20.055 15.45" stroke="currentColor" stroke-linecap="round" stroke-linejoin="round"/>
<path d="M15.495 19.88C16.4449 19.88 17.215 19.1099 17.215 18.16C17.215 17.2101 16.4449 16.44 15.495 16.44C14.5451 16.44 13.775 17.2101 13.775 18.16C13.775 19.1099 14.5451 19.88 15.495 19.88Z" fill="currentColor"/>
</svg>
